<svg width="124" height="124" viewBox="0 0 124 124" fill="none" xmlns="http://www.w3.org/2000/svg">
<path d="M55.6954 110.584L57.3466 114.061L58.3874 114.143L58.6502 110.818L60.014 110.925L59.3569 119.24L56.4859 119.013C55.8478 118.962 55.3183 118.808 54.8974 118.55C54.4684 118.291 54.1611 117.966 53.9754 117.574C53.7817 117.182 53.7031 116.754 53.7397 116.292C53.7825 115.749 53.9811 115.268 54.3354 114.846C54.6811 114.432 55.1873 114.171 55.8538 114.063L54.0685 110.456L55.6954 110.584ZM58.3014 115.232L56.7941 115.113C56.2837 115.072 55.8908 115.17 55.6154 115.405C55.332 115.639 55.1734 115.972 55.1393 116.402C55.1053 116.833 55.2064 117.178 55.4427 117.438C55.6784 117.705 56.0554 117.859 56.5738 117.9L58.0811 118.019L58.3014 115.232Z" fill="#4361EE"/>
<path d="M45.9113 112.068C45.967 111.826 46.0328 111.612 46.1089 111.424L51.0321 112.557C51.1116 112.034 51.0157 111.577 50.7445 111.186C50.4732 110.795 50.0882 110.542 49.5892 110.427C48.872 110.262 48.2961 110.446 47.8617 110.978L46.4233 110.647C46.7546 110.099 47.2215 109.693 47.824 109.43C48.4169 109.172 49.0915 109.131 49.8477 109.305C50.4636 109.447 50.9857 109.71 51.414 110.096C51.8327 110.488 52.125 110.966 52.2908 111.53C52.447 112.099 52.4488 112.715 52.2962 113.378C52.1436 114.041 51.8774 114.591 51.4974 115.029C51.1079 115.473 50.64 115.775 50.0939 115.937C49.5399 116.097 48.9472 116.104 48.3157 115.959C47.7076 115.819 47.1963 115.561 46.7817 115.187C46.3672 114.812 46.0831 114.353 45.9293 113.808C45.7737 113.272 45.7677 112.692 45.9113 112.068ZM47.206 112.809C47.1007 113.302 47.1855 113.736 47.4603 114.112C47.7351 114.487 48.1259 114.733 48.6326 114.849C49.0926 114.955 49.5204 114.898 49.916 114.677C50.3099 114.464 50.5954 114.115 50.7727 113.631L47.206 112.809Z" fill="#4361EE"/>
<path d="M45.0759 111.512C44.8335 112.131 44.4922 112.628 44.0521 113.006C43.6045 113.38 43.1098 113.612 42.5682 113.7C42.0162 113.793 41.4721 113.734 40.9358 113.524C40.4517 113.334 40.0689 113.072 39.7873 112.738C39.4954 112.409 39.2969 112.06 39.1919 111.693L38.8415 112.587L37.5567 112.083L39.9707 105.927L41.2554 106.431L40.8962 107.347C41.2261 107.141 41.6152 107.015 42.0635 106.967C42.5118 106.919 42.9743 106.989 43.451 107.176C43.9798 107.383 44.4113 107.707 44.7456 108.148C45.0769 108.596 45.278 109.113 45.3488 109.699C45.4093 110.29 45.3183 110.894 45.0759 111.512ZM40.0462 109.514C39.8798 109.939 39.8246 110.343 39.8806 110.725C39.9293 111.105 40.063 111.433 40.2817 111.708C40.5005 111.982 40.7737 112.184 41.1014 112.313C41.4291 112.441 41.7666 112.479 42.1139 112.426C42.4582 112.381 42.7811 112.237 43.0825 111.994C43.3736 111.756 43.6023 111.424 43.7688 111C43.9353 110.575 43.9957 110.169 43.95 109.782C43.8968 109.392 43.7623 109.055 43.5465 108.773C43.3203 108.495 43.047 108.294 42.7268 108.168C42.3991 108.039 42.0616 108.002 41.7143 108.055C41.3671 108.107 41.0464 108.257 40.7525 108.502C40.4481 108.752 40.2127 109.09 40.0462 109.514Z" fill="#4361EE"/>
<path d="M33.5054 112.323L37.7422 104.519L38.9445 105.172L34.7076 112.976L33.5054 112.323Z" fill="#4361EE"/>
<path d="M25.505 104.719L27.0945 102.857L24.9041 100.987L25.6287 100.138L27.8191 102.008L29.4786 100.064L27.0144 97.9604L27.739 97.1117L31.2436 100.104L25.8209 106.456L22.3163 103.464L23.0408 102.615L25.505 104.719Z" fill="#4361EE"/>
<path d="M24.9297 93.8258C25.2769 94.213 25.5208 94.6228 25.6616 95.0554C25.791 95.4873 25.8167 95.8994 25.7387 96.2918C25.6548 96.6894 25.4692 97.0277 25.1821 97.3067L24.2368 96.2525C24.4292 96.0477 24.5168 95.7918 24.4995 95.485C24.4709 95.1775 24.3338 94.8868 24.0881 94.6128C23.8317 94.3269 23.5805 94.1546 23.3344 94.0959C23.0771 94.0365 22.862 94.0843 22.6893 94.2392C22.5047 94.4048 22.4478 94.617 22.5187 94.8757C22.5842 95.1286 22.7343 95.4937 22.9689 95.971C23.1988 96.4311 23.3702 96.82 23.4832 97.1377C23.5962 97.4554 23.6319 97.7888 23.5902 98.1378C23.5432 98.4808 23.3589 98.7965 23.0373 99.0849C22.7752 99.3199 22.4676 99.4561 22.1143 99.4936C21.755 99.5363 21.3847 99.4708 21.0033 99.2971C20.6165 99.1174 20.2548 98.84 19.9184 98.4647C19.4163 97.9049 19.156 97.327 19.1375 96.7311C19.1076 96.1347 19.3262 95.6055 19.7933 95.1437L20.7066 96.1622C20.5022 96.3777 20.4066 96.6246 20.4198 96.9029C20.433 97.1812 20.5624 97.4574 20.8081 97.7314C21.0484 97.9994 21.2833 98.1595 21.5127 98.2116C21.7422 98.2638 21.9403 98.2151 22.107 98.0655C22.2381 97.948 22.3055 97.8016 22.3094 97.6262C22.3133 97.4507 22.2806 97.2705 22.2114 97.0855C22.1362 96.9057 22.0172 96.6472 21.8542 96.3097C21.6291 95.8669 21.4656 95.4869 21.3639 95.1698C21.2509 94.852 21.215 94.5243 21.256 94.1867C21.2971 93.849 21.4728 93.5356 21.7831 93.2466C22.063 92.9956 22.3826 92.8487 22.7418 92.8059C23.1011 92.7632 23.4714 92.8287 23.8529 93.0024C24.229 93.1702 24.5879 93.4446 24.9297 93.8258Z" fill="#4361EE"/>
<path d="M16.849 92.46L19.8445 90.357C20.0474 90.2145 20.1626 90.0652 20.1899 89.9092C20.206 89.7512 20.1337 89.5577 19.9728 89.3285L19.4901 88.641L20.4232 87.986L21.0437 88.8699C21.3977 89.374 21.551 89.8431 21.5038 90.277C21.4565 90.711 21.1677 91.1141 20.6374 91.4864L17.6419 93.5894L18.0901 94.2278L17.1767 94.8691L16.7285 94.2307L15.383 95.1753L14.5901 94.0459L15.9356 93.1012L15.0116 91.7852L15.925 91.1439L16.849 92.46Z" fill="#4361EE"/>
<path d="M16.7723 88.3661C16.1845 88.6749 15.6007 88.828 15.0209 88.8253C14.4375 88.8155 13.912 88.6668 13.4446 88.3792C12.9664 88.0882 12.5934 87.6877 12.3255 87.1778C12.0837 86.7175 11.9656 86.269 11.9711 85.8323C11.9659 85.3922 12.0439 84.9988 12.2051 84.6521L11.3552 85.0985L10.7135 83.8769L16.5669 80.8019L17.2087 82.0236L16.3376 82.4812C16.7217 82.5415 17.0988 82.7003 17.469 82.9577C17.8391 83.2151 18.1433 83.5704 18.3814 84.0236C18.6455 84.5265 18.7599 85.0538 18.7244 85.6056C18.6819 86.1611 18.4956 86.6837 18.1654 87.1734C17.8245 87.6598 17.3601 88.0573 16.7723 88.3661ZM14.2767 83.5638C13.873 83.7759 13.567 84.0451 13.3589 84.3713C13.147 84.6904 13.0338 85.0255 13.0194 85.3765C13.005 85.7275 13.0796 86.0588 13.2433 86.3704C13.407 86.682 13.6375 86.9314 13.9346 87.1187C14.2248 87.3097 14.5632 87.4121 14.9499 87.4258C15.3259 87.4361 15.7157 87.3353 16.1194 87.1232C16.5231 86.9111 16.8344 86.6437 17.0533 86.3208C17.2686 85.9908 17.387 85.6485 17.4085 85.2938C17.4192 84.9358 17.3446 84.6045 17.1846 84.2999C17.0209 83.9883 16.7904 83.7389 16.4932 83.5516C16.1961 83.3643 15.856 83.2674 15.4729 83.2607C15.0791 83.2507 14.6803 83.3518 14.2767 83.5638Z" fill="#4361EE"/>
<path d="M10.5822 79.9959L14.0136 78.7227C14.2461 78.6364 14.3954 78.5213 14.4614 78.3773C14.5172 78.2287 14.4964 78.0231 14.399 77.7606L14.1068 76.973L15.1756 76.5764L15.5513 77.589C15.7656 78.1665 15.7947 78.6591 15.6388 79.0668C15.4829 79.4745 15.1012 79.7911 14.4937 80.0165L11.0623 81.2897L11.3336 82.021L10.2873 82.4092L10.016 81.6779L8.47465 82.2498L7.99459 80.956L9.53591 80.3841L8.97654 78.8766L10.0228 78.4883L10.5822 79.9959Z" fill="#4361EE"/>
<path d="M9.93245 69.6975C10.1738 69.6405 10.3955 69.6047 10.5975 69.5899L11.7574 74.507C12.2621 74.3468 12.6298 74.0587 12.8604 73.6426C13.091 73.2266 13.1476 72.7694 13.03 72.2711C12.8611 71.5547 12.4419 71.1193 11.7726 70.9649L11.4337 69.5283C12.0714 69.5834 12.6416 69.8228 13.1443 70.2467C13.6375 70.6647 13.9731 71.2513 14.1513 72.0066C14.2964 72.6217 14.2905 73.2067 14.1337 73.7615C13.9673 74.3104 13.6679 74.7837 13.2357 75.1816C12.7939 75.5735 12.2421 75.8475 11.5802 76.0036C10.9184 76.1597 10.3071 76.1642 9.74632 76.017C9.17592 75.8638 8.69753 75.578 8.31114 75.1596C7.92291 74.7333 7.65441 74.2048 7.50564 73.5742C7.36239 72.9668 7.36711 72.3944 7.51981 71.857C7.67251 71.3196 7.95901 70.8616 8.37932 70.483C8.79184 70.1062 9.30955 69.8444 9.93245 69.6975ZM9.83983 71.1865C9.35113 71.31 8.99925 71.5779 8.78418 71.9903C8.56911 72.4027 8.52127 72.862 8.64065 73.3681C8.74901 73.8275 8.9897 74.1858 9.36272 74.443C9.72795 74.7021 10.1671 74.804 10.6801 74.7487L9.83983 71.1865Z" fill="#4361EE"/>
<path d="M13.1062 60.5529C13.1027 61.1129 13.0036 61.6163 12.8089 62.0631C12.6061 62.5099 12.324 62.8602 11.9624 63.114C11.6008 63.3677 11.1801 63.4932 10.7001 63.4902L10.7091 62.0262C11.0693 61.9964 11.3661 61.8583 11.5996 61.6117C11.8332 61.3571 11.9514 61.0018 11.9542 60.5459C11.9571 60.0739 11.8473 59.7052 11.625 59.4398C11.3946 59.1744 11.0994 59.0406 10.7394 59.0384C10.4594 59.0366 10.2309 59.1192 10.0539 59.2862C9.87691 59.4451 9.73966 59.6482 9.64214 59.8956C9.54466 60.135 9.4386 60.4704 9.32395 60.9017C9.17661 61.4448 9.02989 61.8879 8.88378 62.231C8.72971 62.5661 8.49595 62.8527 8.18248 63.0907C7.86901 63.3288 7.45228 63.4463 6.93229 63.4431C6.4523 63.4401 6.03305 63.3175 5.67453 63.0753C5.31601 62.8331 5.04208 62.4954 4.85274 62.0623C4.66339 61.6291 4.57047 61.1285 4.57396 60.5605C4.57892 59.7525 4.78697 59.0938 5.19811 58.5843C5.6013 58.0668 6.15505 57.7822 6.85938 57.7305L6.8501 59.2425C6.54595 59.2646 6.28507 59.407 6.06746 59.6697C5.84984 59.9323 5.7397 60.2797 5.73705 60.7117C5.73464 61.1037 5.83267 61.4243 6.03115 61.6735C6.22962 61.9227 6.51685 62.0485 6.89284 62.0508C7.14884 62.0524 7.3613 61.9777 7.53023 61.8267C7.69121 61.6677 7.82044 61.4685 7.91791 61.2291C8.01539 60.9897 8.1214 60.6623 8.23595 60.247C8.39134 59.696 8.54609 59.2489 8.7002 58.9058C8.85436 58.5548 9.09217 58.2602 9.41364 58.0222C9.72716 57.7761 10.1479 57.6547 10.6759 57.6579C11.0999 57.6606 11.4992 57.779 11.8737 58.0133C12.2484 58.2396 12.5503 58.5735 12.7796 59.0149C13.0009 59.4483 13.1098 59.9609 13.1062 60.5529Z" fill="#4361EE"/>
<path d="M6.00773 54.5964C5.9768 54.8425 5.86752 55.0384 5.67988 55.1841C5.49224 55.3299 5.27538 55.3873 5.02932 55.3563C4.78326 55.3254 4.58736 55.2161 4.44162 55.0285C4.29588 54.8408 4.23848 54.624 4.26941 54.3779C4.29934 54.1398 4.40812 53.9479 4.59576 53.8021C4.7834 53.6564 5.00026 53.599 5.24632 53.6299C5.49238 53.6609 5.68828 53.7701 5.83402 53.9578C5.97976 54.1454 6.03766 54.3583 6.00773 54.5964ZM6.9607 54.0389L13.5211 54.8635L13.3505 56.2208L6.79009 55.3962L6.9607 54.0389Z" fill="#4361EE"/>
<path d="M8.36233 46.8569C8.49032 46.3529 8.7092 45.9298 9.01898 45.5875C9.33073 45.2374 9.72063 45.0022 10.1887 44.8817C10.6567 44.7612 11.1815 44.7747 11.7631 44.9224L15.5431 45.8823L15.2094 47.1966L11.6271 46.2869C11.0533 46.1412 10.5787 46.1734 10.2035 46.3835C9.82048 46.5916 9.56596 46.9438 9.43994 47.4401C9.31392 47.9363 9.36858 48.3712 9.60391 48.7446C9.83346 49.1083 10.2351 49.363 10.8089 49.5087L14.3912 50.4184L14.0545 51.7443L7.64591 50.1169L7.98262 48.7909L8.71536 48.977C8.50686 48.693 8.37129 48.3655 8.30863 47.9947C8.24795 47.6161 8.26585 47.2368 8.36233 46.8569Z" fill="#4361EE"/>
<path d="M12.9415 43.723C12.3142 43.4607 11.8168 43.1052 11.4494 42.6568C11.0777 42.1978 10.8568 41.6892 10.7868 41.131C10.7168 40.5727 10.8037 40.0021 11.0475 39.419C11.3562 38.6809 11.788 38.1461 12.3429 37.8146C12.8935 37.4725 13.5291 37.3524 14.2495 37.4543L13.68 38.816C13.3311 38.8002 13.0209 38.8785 12.7493 39.0511C12.4777 39.2237 12.2647 39.4945 12.1103 39.8635C11.8943 40.3801 11.9059 40.8706 12.1453 41.3349C12.3804 41.7888 12.8264 42.153 13.4832 42.4278C14.1401 42.7025 14.7163 42.7657 15.2119 42.6174C15.7106 42.4618 16.068 42.1257 16.284 41.609C16.5896 40.8783 16.4707 40.2606 15.9274 39.7559L16.4969 38.3942C17.0428 38.8306 17.3984 39.3696 17.5637 40.011C17.7216 40.6494 17.6493 41.3302 17.3468 42.0535C17.103 42.6366 16.7577 43.0992 16.3111 43.4414C15.8571 43.7805 15.34 43.9804 14.7596 44.0412C14.1749 44.0915 13.5689 43.9854 12.9415 43.723Z" fill="#4361EE"/>
<path d="M19.2425 31.2623C19.4554 31.3896 19.6394 31.5183 19.7947 31.6483L17.2025 35.9846C17.6762 36.2212 18.1407 36.2705 18.596 36.1326C19.0513 35.9946 19.4103 35.7059 19.673 35.2665C20.0506 34.6348 20.0531 34.0304 19.6803 33.4534L20.4376 32.1865C20.8569 32.6701 21.0993 33.2391 21.1648 33.8934C21.2276 34.5368 21.0599 35.1915 20.6618 35.8576C20.3375 36.4 19.9259 36.8157 19.427 37.1047C18.9253 37.3826 18.3808 37.5138 17.7936 37.4983C17.2036 37.4719 16.6167 37.2842 16.0331 36.9353C15.4494 36.5864 15.0076 36.1638 14.7077 35.6676C14.405 35.1605 14.2608 34.6222 14.275 34.0528C14.2932 33.4766 14.4686 32.9103 14.8011 32.3541C15.1213 31.8185 15.5233 31.4111 16.0071 31.1318C16.491 30.8525 17.0156 30.7233 17.5809 30.7444C18.1393 30.7613 18.6932 30.934 19.2425 31.2623ZM18.139 32.2664C17.7023 32.0146 17.2632 31.9619 16.8216 32.108C16.3801 32.2542 16.0259 32.5504 15.7591 32.9967C15.5169 33.4019 15.4401 33.8266 15.5286 34.271C15.6103 34.7113 15.8544 35.0902 16.2611 35.4079L18.139 32.2664Z" fill="#4361EE"/>
<path d="M24.9798 27.0972C25.0444 26.084 25.0797 25.2719 25.0856 24.6609C25.0914 24.0386 25.0326 23.4592 24.909 22.9229C24.7855 22.3866 24.5583 21.9558 24.2273 21.6306C23.8849 21.2942 23.5354 21.1134 23.1788 21.0883C22.8278 21.0575 22.4812 21.2161 22.1392 21.5642C21.8084 21.9009 21.6589 22.2699 21.6908 22.6713C21.7225 23.0613 21.9125 23.4387 22.2608 23.8033L21.3357 24.7449C20.702 24.0886 20.3961 23.4068 20.4182 22.6995C20.4401 21.9808 20.7342 21.3333 21.3005 20.757C21.9117 20.1349 22.5594 19.8181 23.2438 19.8064C23.9338 19.789 24.5642 20.0606 25.1348 20.6213C25.5457 21.025 25.8386 21.5202 26.0135 22.107C26.1882 22.6825 26.2839 23.2644 26.3004 23.8525C26.3168 24.4294 26.3032 25.1338 26.2596 25.9658L26.2236 26.6874L28.8896 23.974L29.7028 24.7729L25.6154 28.933L24.905 28.2349L24.9798 27.0972Z" fill="#4361EE"/>
<path d="M28.1126 20.5513C27.2785 19.4468 26.8128 18.4451 26.7155 17.5462C26.6197 16.6362 27.0283 15.8364 27.9412 15.147C28.8542 14.4576 29.732 14.2859 30.5747 14.632C31.419 14.9668 32.2582 15.6864 33.0922 16.7909C33.9359 17.9081 34.4081 18.925 34.5087 19.8415C34.6108 20.7467 34.2055 21.5441 33.2925 22.2335C32.3796 22.9229 31.4986 23.097 30.6494 22.7558C29.8019 22.4033 28.9562 21.6685 28.1126 20.5513ZM32.0197 17.6008C31.6292 17.0837 31.2638 16.6729 30.9236 16.3684C30.5898 16.0591 30.2364 15.8699 29.8634 15.8007C29.4855 15.7251 29.0955 15.8392 28.6933 16.1429C28.2911 16.4467 28.0746 16.7906 28.0439 17.1747C28.0083 17.5524 28.0904 17.9465 28.2902 18.3571C28.4963 18.7628 28.7946 19.2242 29.1851 19.7413C29.5901 20.2776 29.9619 20.7036 30.3005 21.0193C30.6392 21.335 30.995 21.5274 31.368 21.5966C31.7474 21.6609 32.1382 21.5413 32.5404 21.2375C32.9427 20.9338 33.1615 20.5931 33.1971 20.2154C33.239 19.8328 33.1545 19.4355 32.9436 19.0234C32.7326 18.6113 32.4247 18.1371 32.0197 17.6008Z" fill="#4361EE"/>
<path d="M36.708 17.8485C37.0643 16.8979 37.334 16.131 37.5173 15.5481C37.7037 14.9543 37.8157 14.3829 37.8534 13.8338C37.8911 13.2847 37.7988 12.8065 37.5766 12.3992C37.3468 11.9778 37.0649 11.7033 36.731 11.5756C36.4041 11.4441 36.0264 11.4951 35.598 11.7288C35.1836 11.9548 34.9334 12.2645 34.8472 12.6578C34.7642 13.0402 34.8363 13.4565 35.0636 13.9066L33.9048 14.5387C33.4892 13.7266 33.3947 12.9853 33.6213 12.315C33.8511 11.6337 34.3207 11.0996 35.0301 10.7127C35.7956 10.2951 36.5075 10.1802 37.1657 10.3679C37.831 10.5518 38.3552 10.9949 38.7383 11.6972C39.0141 12.2028 39.1505 12.7618 39.1473 13.3741C39.1473 13.9756 39.0697 14.5601 38.9146 15.1277C38.7626 15.6844 38.5449 16.3545 38.2614 17.1379L38.0172 17.8179L41.3567 15.9963L41.9026 16.9971L36.7828 19.7898L36.3058 18.9154L36.708 17.8485Z" fill="#4361EE"/>
<path d="M43.2371 14.7029C43.7249 13.8125 44.1009 13.0919 44.3652 12.5409C44.6341 11.9797 44.8263 11.43 44.9417 10.8918C45.057 10.3537 45.0337 9.86721 44.8717 9.43242C44.7041 8.98263 44.4641 8.6708 44.1517 8.49693C43.8468 8.32026 43.4658 8.31712 43.0085 8.48752C42.5662 8.65232 42.2744 8.92325 42.1332 9.3003C41.9966 9.66706 42.0089 10.0894 42.1699 10.5672L40.9329 11.0281C40.637 10.1652 40.6488 9.41799 40.9685 8.78663C41.2929 8.14499 41.8336 7.6831 42.5908 7.40097C43.4079 7.09649 44.1289 7.08395 44.7538 7.36335C45.3862 7.63995 45.842 8.15307 46.1214 8.90272C46.3225 9.44247 46.3779 10.0152 46.2877 10.6208C46.2022 11.2161 46.0423 11.7836 45.8081 12.3234C45.5785 12.8529 45.2677 13.4852 44.8757 14.2204L44.5373 14.8587L48.1019 13.5305L48.4999 14.5987L43.035 16.6351L42.6872 15.7017L43.2371 14.7029Z" fill="#4361EE"/>
<path d="M59.0015 8.04495L59.1381 9.18882L54.2409 9.77383L54.1043 8.62996L59.0015 8.04495Z" fill="#4361EE"/>
<path d="M70.4405 13.6664L68.9466 10.1191L67.9106 9.9903L67.4991 13.3008L66.1416 13.1321L67.1702 4.85578L70.0282 5.21099C70.6633 5.28993 71.1854 5.46767 71.5944 5.74423C72.0113 6.02177 72.3038 6.36043 72.4718 6.7602C72.6477 7.16096 72.707 7.59156 72.6498 8.05202C72.5827 8.59187 72.3628 9.06435 71.99 9.46946C71.6261 9.86762 71.1088 10.1056 70.438 10.1835L72.06 13.8677L70.4405 13.6664ZM68.0453 8.90664L69.5457 9.09312C70.0538 9.15627 70.4507 9.07661 70.7363 8.85414C71.0298 8.63265 71.2033 8.30756 71.2565 7.87886C71.3098 7.45016 71.2242 7.10093 70.9998 6.83119C70.7763 6.55351 70.4066 6.3826 69.8906 6.31847L68.3901 6.13199L68.0453 8.90664Z" fill="#4361EE"/>
<path d="M80.2812 12.6221C80.2148 12.861 80.1394 13.0725 80.0551 13.2567L75.1875 11.9039C75.0847 12.4233 75.16 12.8843 75.4135 13.2869C75.6669 13.6895 76.0403 13.9593 76.5336 14.0964C77.2427 14.2935 77.8262 14.136 78.2841 13.6239L79.7062 14.0191C79.3507 14.5513 78.8661 14.9356 78.2524 15.1719C77.6485 15.4026 76.9728 15.4141 76.2251 15.2063C75.6162 15.0371 75.1064 14.7501 74.6958 14.3454C74.2951 13.9351 74.0245 13.4447 73.8841 12.8743C73.7536 12.2983 73.7793 11.6827 73.9614 11.0276C74.1435 10.3724 74.4341 9.83458 74.8333 9.41412C75.2423 8.98808 75.7233 8.70658 76.2761 8.56962C76.8367 8.4348 77.4291 8.45415 78.0535 8.62767C78.6547 8.79476 79.154 9.07467 79.5513 9.46741C79.9487 9.86015 80.212 10.3319 80.3412 10.8826C80.4726 11.4256 80.4526 12.0054 80.2812 12.6221ZM79.0211 11.8235C79.1483 11.3357 79.0831 10.8983 78.8253 10.5111C78.5676 10.124 78.1882 9.86078 77.6872 9.72154C77.2324 9.59515 76.8025 9.63342 76.3974 9.83634C75.9944 10.0316 75.6935 10.3673 75.4947 10.8434L79.0211 11.8235Z" fill="#4361EE"/>
<path d="M81.0908 13.2145C81.3606 12.6078 81.7239 12.1258 82.1805 11.7686C82.6444 11.4145 83.1489 11.2055 83.6939 11.1415C84.2495 11.0734 84.7905 11.1564 85.3168 11.3905C85.7919 11.6018 86.1626 11.8806 86.429 12.2267C86.7058 12.5687 86.8885 12.9258 86.9769 13.2978L87.3671 12.4207L88.628 12.9815L85.9409 19.0228L84.68 18.462L85.0799 17.5629C84.7411 17.7537 84.3467 17.8629 83.8967 17.8904C83.4467 17.9178 82.9878 17.8276 82.52 17.6195C82.001 17.3886 81.5844 17.0457 81.2702 16.5908C80.9592 16.1285 80.7814 15.6029 80.7369 15.014C80.703 14.421 80.8209 13.8212 81.0908 13.2145ZM86.026 15.4359C86.2113 15.0192 86.2845 14.6184 86.2456 14.2333C86.214 13.8516 86.0951 13.5185 85.8889 13.2341C85.6827 12.9498 85.4187 12.7361 85.0971 12.593C84.7755 12.45 84.44 12.3971 84.0908 12.4343C83.7447 12.4643 83.4157 12.5938 83.1037 12.8227C82.8023 13.0477 82.5589 13.3684 82.3736 13.7851C82.1883 14.2017 82.1098 14.6046 82.1381 14.9937C82.1738 15.386 82.2931 15.728 82.496 16.0197C82.7096 16.3073 82.9735 16.521 83.2878 16.6608C83.6095 16.8039 83.9449 16.8568 84.2942 16.8195C84.6435 16.7822 84.9705 16.6475 85.2751 16.4153C85.5904 16.179 85.8406 15.8525 86.026 15.4359Z" fill="#4361EE"/>
<path d="M92.6862 12.9222L88.1042 20.5288L86.9324 19.8229L91.5143 12.2163L92.6862 12.9222Z" fill="#4361EE"/>
<path d="M100.338 20.8775L98.6668 22.6663L100.771 24.6324L100.009 25.4479L97.9049 23.4818L96.16 25.3495L98.5275 27.5614L97.7657 28.3769L94.3985 25.2311L100.1 19.1281L103.467 22.2739L102.706 23.0894L100.338 20.8775Z" fill="#4361EE"/>
<path d="M100.425 31.7851C100.096 31.3828 99.8704 30.9625 99.7491 30.5241C99.6392 30.0868 99.6319 29.6739 99.7274 29.2854C99.8291 28.8919 100.03 28.5623 100.329 28.2965L101.226 29.3919C101.025 29.5879 100.926 29.8396 100.929 30.1469C100.944 30.4554 101.068 30.7519 101.301 31.0366C101.545 31.3337 101.788 31.5171 102.031 31.5868C102.285 31.6576 102.502 31.6195 102.682 31.4725C102.874 31.3153 102.94 31.1059 102.881 30.8442C102.827 30.5887 102.693 30.2172 102.48 29.7299C102.271 29.26 102.117 28.8638 102.019 28.5413C101.92 28.2188 101.899 27.8842 101.956 27.5375C102.019 27.1969 102.217 26.8897 102.551 26.616C102.824 26.393 103.137 26.2707 103.492 26.2491C103.852 26.2225 104.219 26.3045 104.593 26.4951C104.971 26.6919 105.32 26.9853 105.639 27.3752C106.116 27.957 106.35 28.546 106.342 29.142C106.345 29.7393 106.103 30.2581 105.616 30.6985L104.749 29.6401C104.963 29.434 105.069 29.1916 105.068 28.913C105.068 28.6344 104.951 28.3527 104.718 28.068C104.489 27.7895 104.262 27.6191 104.035 27.5567C103.808 27.4943 103.608 27.5341 103.435 27.676C103.299 27.7876 103.225 27.9309 103.213 28.1059C103.201 28.281 103.226 28.4625 103.287 28.6505C103.354 28.8334 103.461 29.097 103.609 29.4414C103.814 29.8939 103.96 30.2808 104.048 30.6022C104.146 30.9246 104.168 31.2536 104.111 31.5891C104.055 31.9246 103.866 32.2298 103.543 32.5046C103.252 32.7429 102.926 32.8753 102.565 32.902C102.204 32.9286 101.837 32.8466 101.464 32.656C101.096 32.4715 100.75 32.1812 100.425 31.7851Z" fill="#4361EE"/>
<path d="M108.437 33.5115L105.35 35.4783C105.141 35.6116 105.019 35.7555 104.985 35.9102C104.962 36.0673 105.025 36.2639 105.176 36.5L105.627 37.2084L104.666 37.821L104.085 36.9102C103.754 36.3907 103.622 35.9153 103.689 35.4839C103.755 35.0525 104.062 34.6627 104.608 34.3145L107.695 32.3477L107.276 31.6899L108.217 31.0902L108.636 31.748L110.023 30.8645L110.764 32.0283L109.378 32.9118L110.242 34.2679L109.301 34.8676L108.437 33.5115Z" fill="#4361EE"/>
<path d="M108.33 37.6047C108.931 37.3225 109.521 37.1957 110.1 37.2244C110.683 37.2603 111.201 37.4323 111.655 37.7406C112.12 38.0527 112.474 38.4695 112.719 38.9909C112.94 39.4616 113.038 39.9149 113.013 40.3509C112.998 40.7908 112.903 41.1803 112.726 41.5195L113.595 41.1115L114.182 42.3607L108.197 45.1706L107.61 43.9214L108.501 43.5032C108.12 43.4258 107.75 43.2502 107.392 42.9765C107.034 42.7028 106.746 42.3343 106.528 41.8708C106.287 41.3566 106.196 40.8247 106.256 40.2751C106.324 39.722 106.533 39.2083 106.885 38.7339C107.247 38.2633 107.729 37.8869 108.33 37.6047ZM110.608 42.5139C111.021 42.3201 111.339 42.0649 111.561 41.7483C111.787 41.439 111.915 41.1093 111.945 40.7594C111.975 40.4094 111.916 40.0751 111.766 39.7564C111.617 39.4378 111.397 39.1783 111.109 38.9779C110.828 38.7741 110.494 38.6567 110.108 38.6257C109.733 38.5985 109.339 38.6818 108.927 38.8756C108.514 39.0694 108.191 39.3227 107.958 39.6354C107.728 39.9554 107.594 40.2921 107.557 40.6454C107.53 41.0027 107.59 41.337 107.736 41.6484C107.886 41.967 108.105 42.2265 108.393 42.4269C108.682 42.6273 109.017 42.7394 109.4 42.7631C109.793 42.7908 110.195 42.7077 110.608 42.5139Z" fill="#4361EE"/>
<path d="M114.139 46.2437L110.654 47.362C110.418 47.4378 110.264 47.5461 110.191 47.6869C110.129 47.833 110.141 48.0393 110.226 48.3059L110.483 49.1057L109.397 49.4541L109.067 48.4257C108.879 47.8392 108.872 47.3458 109.046 46.9454C109.22 46.5451 109.615 46.246 110.232 46.048L113.717 44.9297L113.479 44.187L114.542 43.846L114.78 44.5887L116.345 44.0864L116.767 45.4004L115.202 45.9027L115.693 47.4338L114.63 47.7748L114.139 46.2437Z" fill="#4361EE"/>
<path d="M114.327 56.5606C114.083 56.6067 113.86 56.6326 113.658 56.6383L112.719 51.6742C112.208 51.8116 111.828 52.083 111.579 52.4883C111.33 52.8936 111.253 53.3478 111.348 53.8509C111.485 54.5741 111.884 55.0278 112.546 55.2121L112.82 56.6624C112.185 56.5788 111.626 56.3141 111.143 55.8681C110.669 55.4285 110.36 54.8274 110.216 54.0649C110.098 53.4439 110.131 52.8598 110.312 52.3126C110.503 51.7717 110.823 51.3122 111.273 50.9341C111.732 50.5624 112.295 50.3133 112.963 50.187C113.631 50.0607 114.242 50.0836 114.796 50.2557C115.359 50.4343 115.824 50.7412 116.191 51.1765C116.56 51.6198 116.805 52.1597 116.925 52.7964C117.041 53.4096 117.011 53.9812 116.834 54.5112C116.657 55.0412 116.351 55.486 115.914 55.8454C115.485 56.2033 114.956 56.4417 114.327 56.5606ZM114.486 55.0772C114.98 54.9757 115.344 54.7238 115.577 54.3214C115.81 53.9191 115.879 53.4624 115.782 52.9515C115.694 52.4877 115.47 52.119 115.109 51.8453C114.755 51.5701 114.321 51.4487 113.806 51.4809L114.486 55.0772Z" fill="#4361EE"/>
<path d="M110.747 65.5541C110.776 64.9949 110.897 64.4964 111.112 64.0588C111.334 63.6215 111.632 63.2842 112.005 63.0469C112.377 62.8096 112.803 62.7031 113.282 62.7275L113.208 64.1896C112.847 64.2033 112.544 64.328 112.3 64.5639C112.055 64.8077 111.921 65.1574 111.898 65.6128C111.874 66.0842 111.967 66.4574 112.177 66.7325C112.395 67.0079 112.684 67.1548 113.044 67.1732C113.323 67.1874 113.555 67.1151 113.74 66.9563C113.924 66.8055 114.07 66.6086 114.178 66.3659C114.286 66.1311 114.407 65.8008 114.541 65.375C114.713 64.8391 114.879 64.403 115.041 64.0668C115.209 63.7389 115.456 63.4631 115.78 63.2393C116.103 63.0155 116.525 62.9168 117.044 62.9433C117.524 62.9677 117.937 63.109 118.284 63.367C118.632 63.625 118.89 63.9746 119.06 64.4158C119.23 64.857 119.3 65.3613 119.271 65.9285C119.23 66.7355 118.993 67.3843 118.559 67.8748C118.133 68.3738 117.567 68.6333 116.861 68.6534L116.938 67.1434C117.243 67.1349 117.51 67.0043 117.739 66.7516C117.969 66.499 118.094 66.1569 118.116 65.7255C118.136 65.334 118.052 65.0093 117.865 64.7514C117.678 64.4936 117.397 64.3551 117.021 64.3359C116.766 64.3229 116.55 64.388 116.375 64.5313C116.207 64.6829 116.069 64.8761 115.961 65.111C115.852 65.3458 115.732 65.668 115.599 66.0778C115.419 66.6213 115.244 67.061 115.075 67.3968C114.905 67.7406 114.655 68.0242 114.323 68.2476C113.999 68.4794 113.573 68.5819 113.045 68.555C112.622 68.5334 112.228 68.3972 111.865 68.1464C111.501 67.9035 111.214 67.5565 111.005 67.1053C110.803 66.6624 110.717 66.1454 110.747 65.5541Z" fill="#4361EE"/>
<path d="M117.572 71.8224C117.614 71.578 117.732 71.3871 117.926 71.25C118.12 71.1128 118.339 71.0651 118.583 71.107C118.828 71.149 119.019 71.2669 119.156 71.4609C119.293 71.6549 119.341 71.8741 119.299 72.1185C119.258 72.355 119.141 72.5419 118.947 72.6791C118.753 72.8163 118.534 72.8639 118.289 72.822C118.045 72.7801 117.854 72.6622 117.717 72.4682C117.58 72.2742 117.531 72.0589 117.572 71.8224ZM116.595 72.3367L110.078 71.2192L110.309 69.8709L116.826 70.9884L116.595 72.3367Z" fill="#4361EE"/>
<path d="M114.873 79.4488C114.723 79.9466 114.485 80.3595 114.16 80.6876C113.833 81.0233 113.433 81.2409 112.96 81.3403C112.487 81.4397 111.964 81.4027 111.389 81.2291L107.656 80.1009L108.048 78.8029L111.586 79.8721C112.153 80.0433 112.628 80.0324 113.013 79.8393C113.405 79.6485 113.675 79.3081 113.823 78.818C113.971 78.3279 113.936 77.891 113.717 77.5075C113.504 77.1339 113.115 76.8614 112.548 76.6902L109.01 75.621L109.406 74.3115L115.735 76.2242L115.339 77.5337L114.615 77.315C114.811 77.6081 114.932 77.9413 114.978 78.3146C115.021 78.6955 114.987 79.0736 114.873 79.4488Z" fill="#4361EE"/>
<path d="M110.158 82.3744C110.773 82.6646 111.254 83.042 111.601 83.5065C111.952 83.9816 112.15 84.4996 112.195 85.0604C112.24 85.6212 112.127 86.1874 111.858 86.759C111.516 87.4825 111.061 87.9974 110.492 88.3038C109.926 88.6209 109.286 88.7124 108.571 88.5783L109.201 87.2435C109.549 87.2749 109.862 87.2106 110.141 87.0503C110.42 86.8901 110.645 86.6291 110.816 86.2674C111.055 85.7609 111.065 85.2704 110.847 84.7958C110.632 84.3319 110.203 83.948 109.559 83.6442C108.915 83.3403 108.342 83.2514 107.841 83.3773C107.336 83.5105 106.963 83.8303 106.724 84.3367C106.386 85.053 106.478 85.6754 106.998 86.2039L106.368 87.5388C105.842 87.0783 105.511 86.524 105.375 85.8758C105.245 85.231 105.348 84.5541 105.683 83.8451C105.952 83.2735 106.318 82.8268 106.779 82.505C107.248 82.1866 107.774 82.01 108.356 81.9753C108.943 81.9512 109.543 82.0843 110.158 82.3744Z" fill="#4361EE"/>
<path d="M103.306 94.5407C103.099 94.4041 102.921 94.2673 102.772 94.1304L105.555 89.9145C105.093 89.657 104.631 89.5869 104.17 89.7043C103.709 89.8217 103.337 90.0941 103.055 90.5214C102.65 91.1355 102.62 91.7392 102.967 92.3323L102.153 93.564C101.756 93.0621 101.539 92.4828 101.503 91.8262C101.469 91.1807 101.666 90.5342 102.094 89.8866C102.442 89.3592 102.872 88.9623 103.383 88.696C103.897 88.4408 104.447 88.3341 105.033 88.3759C105.621 88.4287 106.199 88.6425 106.766 89.0172C107.334 89.3919 107.756 89.8338 108.033 90.3429C108.313 90.8631 108.433 91.4073 108.393 91.9754C108.349 92.5503 108.149 93.1081 107.792 93.6489C107.448 94.1696 107.028 94.5587 106.532 94.816C106.036 95.0734 105.506 95.1789 104.943 95.1326C104.386 95.0907 103.84 94.8934 103.306 94.5407ZM104.453 93.5871C104.878 93.8582 105.315 93.9306 105.762 93.8043C106.21 93.6781 106.577 93.398 106.863 92.9641C107.123 92.5702 107.219 92.1493 107.151 91.7014C107.089 91.2579 106.862 90.8684 106.47 90.5329L104.453 93.5871Z" fill="#4361EE"/>
<path d="M97.3878 98.4448C97.2778 99.4541 97.2063 100.264 97.173 100.874C97.1393 101.495 97.1722 102.077 97.2716 102.618C97.371 103.159 97.5787 103.6 97.8948 103.94C98.2218 104.291 98.5628 104.487 98.918 104.528C99.2672 104.575 99.6205 104.432 99.9778 104.099C100.323 103.778 100.489 103.416 100.475 103.014C100.461 102.622 100.288 102.237 99.9565 101.857L100.923 100.958C101.527 101.642 101.802 102.337 101.748 103.042C101.694 103.759 101.371 104.393 100.779 104.943C100.141 105.537 99.4798 105.825 98.7956 105.806C98.1055 105.792 97.4879 105.493 96.943 104.907C96.5506 104.486 96.2802 103.978 96.1317 103.384C95.9829 102.801 95.9134 102.215 95.9232 101.627C95.9327 101.05 95.9778 100.347 96.0585 99.5177L96.1269 98.7985L93.3421 101.39L92.5655 100.555L96.8349 96.5824L97.5134 97.3115L97.3878 98.4448Z" fill="#4361EE"/>
<path d="M93.9652 104.844C94.7489 105.984 95.1693 107.006 95.2263 107.908C95.2813 108.822 94.8373 109.602 93.8944 110.25C92.9515 110.898 92.0669 111.03 91.2405 110.647C90.412 110.275 89.6059 109.518 88.8222 108.377C88.0293 107.224 87.6032 106.187 87.5437 105.267C87.4822 104.358 87.9228 103.579 88.8657 102.931C89.8086 102.284 90.6966 102.149 91.5296 102.528C92.3605 102.918 93.1724 103.69 93.9652 104.844ZM89.9299 107.616C90.2968 108.15 90.6434 108.577 90.9697 108.897C91.2893 109.221 91.6339 109.425 92.0035 109.511C92.3775 109.604 92.7723 109.507 93.1877 109.222C93.6031 108.936 93.8347 108.602 93.8826 108.22C93.9351 107.844 93.8707 107.447 93.6895 107.028C93.5018 106.613 93.2244 106.139 92.8574 105.605C92.4769 105.051 92.1245 104.609 91.8004 104.278C91.4762 103.948 91.1293 103.74 90.7598 103.654C90.3836 103.573 89.9879 103.675 89.5725 103.96C89.1571 104.245 88.9231 104.576 88.8707 104.952C88.8117 105.332 88.8783 105.733 89.0706 106.154C89.2629 106.575 89.5493 107.062 89.9299 107.616Z" fill="#4361EE"/>
<path d="M85.2573 107.159C84.8588 108.093 84.555 108.847 84.3459 109.421C84.133 110.006 83.9955 110.572 83.9333 111.119C83.8711 111.665 83.9419 112.147 84.1456 112.564C84.3564 112.995 84.6257 113.282 84.9535 113.425C85.2742 113.571 85.6538 113.537 86.0922 113.322C86.5163 113.115 86.7802 112.817 86.8839 112.428C86.9839 112.05 86.9305 111.631 86.7236 111.171L87.9095 110.591C88.2884 111.421 88.3496 112.166 88.0932 112.825C87.8331 113.496 87.3401 114.008 86.6141 114.363C85.8307 114.746 85.1143 114.829 84.4651 114.612C83.8087 114.398 83.3049 113.932 82.9537 113.213C82.7007 112.696 82.5896 112.131 82.6202 111.52C82.6471 110.919 82.7508 110.339 82.9312 109.779C83.1079 109.229 83.3554 108.569 83.6736 107.8L83.948 107.131L80.5303 108.801L80.0298 107.777L85.2695 105.216L85.7069 106.111L85.2573 107.159Z" fill="#4361EE"/>
<path d="M78.5939 110.009C78.0667 110.877 77.6588 111.58 77.3702 112.119C77.0764 112.667 76.8598 113.208 76.7204 113.74C76.5811 114.273 76.5826 114.76 76.725 115.201C76.8723 115.658 77.0981 115.98 77.4024 116.168C77.699 116.358 78.0796 116.378 78.5441 116.229C78.9933 116.084 79.2969 115.826 79.4549 115.456C79.6077 115.096 79.6144 114.673 79.4749 114.189L80.7312 113.783C80.9883 114.659 80.943 115.405 80.5954 116.021C80.2426 116.648 79.6817 117.085 78.9127 117.333C78.0827 117.6 77.3619 117.581 76.7502 117.274C76.1308 116.969 75.6984 116.436 75.4529 115.674C75.2761 115.126 75.2463 114.552 75.3636 113.951C75.4757 113.36 75.6608 112.8 75.919 112.271C76.1721 111.753 76.5108 111.135 76.9353 110.418L77.302 109.795L73.6815 110.963L73.3317 109.878L78.8823 108.088L79.1879 109.036L78.5939 110.009Z" fill="#4361EE"/>
<path d="M62.5474 115.955L62.4621 114.806L67.3805 114.441L67.4658 115.59L62.5474 115.955Z" fill="#4361EE"/>
</svg>
