<svg width="160" height="16" viewBox="0 0 160 16" fill="none" xmlns="http://www.w3.org/2000/svg">
<path d="M35.792 9.992H32.56V13.304H30.864V9.992H27.632V8.456H30.864V5.144H32.56V8.456H35.792V9.992ZM38.1419 5V3.336H41.4699V15H39.6299V5H38.1419ZM49.1399 12.52C50.1639 11.6347 50.9692 10.9093 51.5559 10.344C52.1532 9.768 52.6492 9.17067 53.0439 8.552C53.4385 7.93333 53.6359 7.31467 53.6359 6.696C53.6359 6.056 53.4812 5.55467 53.1719 5.192C52.8732 4.82933 52.3985 4.648 51.7479 4.648C51.1185 4.648 50.6279 4.85067 50.2759 5.256C49.9345 5.65067 49.7532 6.184 49.7319 6.856H47.9719C48.0039 5.64 48.3665 4.712 49.0599 4.072C49.7639 3.42133 50.6545 3.096 51.7319 3.096C52.8945 3.096 53.8012 3.416 54.4519 4.056C55.1132 4.696 55.4439 5.54933 55.4439 6.616C55.4439 7.384 55.2465 8.12533 54.8519 8.84C54.4679 9.544 54.0039 10.1787 53.4599 10.744C52.9265 11.2987 52.2439 11.944 51.4119 12.68L50.6919 13.32H55.7639V14.84H47.9879V13.512L49.1399 12.52ZM57.3663 9.016C57.3663 7.17067 57.6756 5.73067 58.2943 4.696C58.9236 3.65067 60.0009 3.128 61.5263 3.128C63.0516 3.128 64.1236 3.65067 64.7423 4.696C65.3716 5.73067 65.6863 7.17067 65.6863 9.016C65.6863 10.8827 65.3716 12.344 64.7423 13.4C64.1236 14.4453 63.0516 14.968 61.5263 14.968C60.0009 14.968 58.9236 14.4453 58.2943 13.4C57.6756 12.344 57.3663 10.8827 57.3663 9.016ZM63.8943 9.016C63.8943 8.152 63.8356 7.42133 63.7183 6.824C63.6116 6.22667 63.3876 5.74133 63.0463 5.368C62.7049 4.984 62.1983 4.792 61.5263 4.792C60.8543 4.792 60.3476 4.984 60.0063 5.368C59.6649 5.74133 59.4356 6.22667 59.3183 6.824C59.2116 7.42133 59.1583 8.152 59.1583 9.016C59.1583 9.912 59.2116 10.664 59.3183 11.272C59.4249 11.88 59.6489 12.3707 59.9903 12.744C60.3423 13.1173 60.8543 13.304 61.5263 13.304C62.1983 13.304 62.7049 13.1173 63.0463 12.744C63.3983 12.3707 63.6276 11.88 63.7343 11.272C63.8409 10.664 63.8943 9.912 63.8943 9.016ZM73.8883 6.04C73.7709 5.54933 73.5576 5.18133 73.2483 4.936C72.9389 4.69067 72.5069 4.568 71.9523 4.568C71.1096 4.568 70.4803 4.89333 70.0643 5.544C69.6483 6.184 69.4296 7.25067 69.4083 8.744C69.6856 8.27467 70.0909 7.912 70.6243 7.656C71.1576 7.4 71.7336 7.272 72.3523 7.272C73.0563 7.272 73.6749 7.42667 74.2083 7.736C74.7523 8.03467 75.1736 8.472 75.4722 9.048C75.7816 9.624 75.9363 10.312 75.9363 11.112C75.9363 11.8587 75.7869 12.5253 75.4883 13.112C75.2003 13.6987 74.7683 14.1627 74.1923 14.504C73.6163 14.8347 72.9229 15 72.1123 15C71.0136 15 70.1496 14.76 69.5203 14.28C68.9016 13.7893 68.4643 13.1013 68.2083 12.216C67.9629 11.3307 67.8403 10.2267 67.8403 8.904C67.8403 5 69.2163 3.048 71.9683 3.048C73.0349 3.048 73.8723 3.336 74.4803 3.912C75.0989 4.488 75.4616 5.19733 75.5683 6.04H73.8883ZM71.9523 8.808C71.3016 8.808 70.7469 9.00533 70.2883 9.4C69.8403 9.784 69.6163 10.344 69.6163 11.08C69.6163 11.816 69.8243 12.4027 70.2403 12.84C70.6669 13.2667 71.2589 13.48 72.0163 13.48C72.6883 13.48 73.2163 13.272 73.6003 12.856C73.9949 12.44 74.1923 11.8853 74.1923 11.192C74.1923 10.4667 74.0003 9.89067 73.6163 9.464C73.2429 9.02667 72.6883 8.808 71.9523 8.808ZM84.8899 8.44V9.976H78.3139V8.44H84.8899ZM88.2493 12.52C89.2733 11.6347 90.0786 10.9093 90.6653 10.344C91.2626 9.768 91.7586 9.17067 92.1533 8.552C92.5479 7.93333 92.7453 7.31467 92.7453 6.696C92.7453 6.056 92.5906 5.55467 92.2813 5.192C91.9826 4.82933 91.5079 4.648 90.8573 4.648C90.2279 4.648 89.7373 4.85067 89.3853 5.256C89.0439 5.65067 88.8626 6.184 88.8413 6.856H87.0813C87.1133 5.64 87.4759 4.712 88.1693 4.072C88.8733 3.42133 89.7639 3.096 90.8413 3.096C92.0039 3.096 92.9106 3.416 93.5613 4.056C94.2226 4.696 94.5533 5.54933 94.5533 6.616C94.5533 7.384 94.3559 8.12533 93.9613 8.84C93.5773 9.544 93.1133 10.1787 92.5693 10.744C92.0359 11.2987 91.3533 11.944 90.5213 12.68L89.8013 13.32H94.8733V14.84H87.0973V13.512L88.2493 12.52ZM96.2356 5V3.336H99.5636V15H97.7236V5H96.2356ZM101.845 12.568V11.192L107.221 3.48H109.429V10.984H110.917V12.568H109.429V15H107.637V12.568H101.845ZM107.717 5.336L103.941 10.984H107.717V5.336ZM119.437 8.44V9.976H112.861V8.44H119.437ZM122.796 12.52C123.82 11.6347 124.625 10.9093 125.212 10.344C125.809 9.768 126.305 9.17067 126.7 8.552C127.095 7.93333 127.292 7.31467 127.292 6.696C127.292 6.056 127.137 5.55467 126.828 5.192C126.529 4.82933 126.055 4.648 125.404 4.648C124.775 4.648 124.284 4.85067 123.932 5.256C123.591 5.65067 123.409 6.184 123.388 6.856H121.628C121.66 5.64 122.023 4.712 122.716 4.072C123.42 3.42133 124.311 3.096 125.388 3.096C126.551 3.096 127.457 3.416 128.108 4.056C128.769 4.696 129.1 5.54933 129.1 6.616C129.1 7.384 128.903 8.12533 128.508 8.84C128.124 9.544 127.66 10.1787 127.116 10.744C126.583 11.2987 125.9 11.944 125.068 12.68L124.348 13.32H129.42V14.84H121.644V13.512L122.796 12.52ZM132.031 12.52C133.055 11.6347 133.86 10.9093 134.447 10.344C135.044 9.768 135.54 9.17067 135.935 8.552C136.329 7.93333 136.527 7.31467 136.527 6.696C136.527 6.056 136.372 5.55467 136.063 5.192C135.764 4.82933 135.289 4.648 134.639 4.648C134.009 4.648 133.519 4.85067 133.167 5.256C132.825 5.65067 132.644 6.184 132.623 6.856H130.863C130.895 5.64 131.257 4.712 131.951 4.072C132.655 3.42133 133.545 3.096 134.623 3.096C135.785 3.096 136.692 3.416 137.343 4.056C138.004 4.696 138.335 5.54933 138.335 6.616C138.335 7.384 138.137 8.12533 137.743 8.84C137.359 9.544 136.895 10.1787 136.351 10.744C135.817 11.2987 135.135 11.944 134.303 12.68L133.583 13.32H138.655V14.84H130.879V13.512L132.031 12.52ZM142.529 11.832C142.636 12.3653 142.865 12.7707 143.217 13.048C143.569 13.3253 144.044 13.464 144.641 13.464C145.398 13.464 145.953 13.1653 146.305 12.568C146.657 11.9707 146.833 10.952 146.833 9.512C146.577 9.87467 146.214 10.1573 145.745 10.36C145.286 10.552 144.785 10.648 144.241 10.648C143.548 10.648 142.918 10.5093 142.353 10.232C141.788 9.944 141.34 9.52267 141.009 8.968C140.689 8.40267 140.529 7.72 140.529 6.92C140.529 5.74667 140.87 4.81333 141.553 4.12C142.246 3.416 143.196 3.064 144.401 3.064C145.852 3.064 146.881 3.54933 147.489 4.52C148.108 5.48 148.417 6.95733 148.417 8.952C148.417 10.328 148.3 11.4533 148.065 12.328C147.841 13.2027 147.446 13.864 146.881 14.312C146.316 14.76 145.532 14.984 144.529 14.984C143.388 14.984 142.508 14.6853 141.889 14.088C141.27 13.4907 140.924 12.7387 140.849 11.832H142.529ZM144.561 9.112C145.201 9.112 145.702 8.91467 146.065 8.52C146.438 8.11467 146.625 7.58133 146.625 6.92C146.625 6.184 146.428 5.61333 146.033 5.208C145.649 4.792 145.121 4.584 144.449 4.584C143.777 4.584 143.244 4.79733 142.849 5.224C142.465 5.64 142.273 6.18933 142.273 6.872C142.273 7.52267 142.46 8.06133 142.833 8.488C143.217 8.904 143.793 9.112 144.561 9.112ZM152.381 8.904C151.272 8.34933 150.717 7.47467 150.717 6.28C150.717 5.704 150.861 5.176 151.149 4.696C151.437 4.216 151.869 3.83733 152.445 3.56C153.021 3.272 153.725 3.128 154.557 3.128C155.378 3.128 156.077 3.272 156.653 3.56C157.24 3.83733 157.677 4.216 157.965 4.696C158.253 5.176 158.397 5.704 158.397 6.28C158.397 6.87733 158.242 7.40533 157.933 7.864C157.634 8.312 157.234 8.65867 156.733 8.904C157.341 9.128 157.821 9.496 158.173 10.008C158.525 10.5093 158.701 11.1013 158.701 11.784C158.701 12.4773 158.525 13.0907 158.173 13.624C157.821 14.1573 157.33 14.568 156.701 14.856C156.072 15.144 155.357 15.288 154.557 15.288C153.757 15.288 153.042 15.144 152.413 14.856C151.794 14.568 151.309 14.1573 150.957 13.624C150.605 13.0907 150.429 12.4773 150.429 11.784C150.429 11.0907 150.605 10.4933 150.957 9.992C151.309 9.49067 151.784 9.128 152.381 8.904ZM156.653 6.504C156.653 5.90667 156.466 5.448 156.093 5.128C155.72 4.808 155.208 4.648 154.557 4.648C153.917 4.648 153.41 4.808 153.037 5.128C152.664 5.448 152.477 5.912 152.477 6.52C152.477 7.05333 152.669 7.49067 153.053 7.832C153.448 8.16267 153.949 8.328 154.557 8.328C155.165 8.328 155.666 8.15733 156.061 7.816C156.456 7.47467 156.653 7.03733 156.653 6.504ZM154.557 9.704C153.853 9.704 153.277 9.88 152.829 10.232C152.392 10.5733 152.173 11.0693 152.173 11.72C152.173 12.328 152.386 12.824 152.813 13.208C153.24 13.5813 153.821 13.768 154.557 13.768C155.282 13.768 155.853 13.576 156.269 13.192C156.696 12.808 156.909 12.3173 156.909 11.72C156.909 11.08 156.69 10.584 156.253 10.232C155.826 9.88 155.261 9.704 154.557 9.704Z" fill="#808080"/>
<path d="M15.5425 1.66261L15.5161 1.64609L12.1749 0L8.56855 4.8084L10.2277 7.02078C10.1781 7.85512 9.82426 8.6423 9.23324 9.23331C8.64223 9.82432 7.85504 10.1781 7.0207 10.2278L4.80836 8.56859L0 12.1748L1.6324 15.4881L1.64613 15.5161L1.66269 15.5425C1.7498 15.6829 1.87139 15.7986 2.01588 15.8787C2.16036 15.9587 2.32295 16.0005 2.48814 16H3.3503C5.01148 16 6.6564 15.6728 8.19114 15.0371C9.72587 14.4014 11.1204 13.4696 12.295 12.295C13.4696 11.1203 14.4014 9.72584 15.0371 8.1911C15.6728 6.65636 16 5.01144 16 3.35026V2.48807C16.0005 2.32287 15.9588 2.16029 15.8787 2.0158C15.7986 1.87131 15.6829 1.74972 15.5425 1.66261ZM14.7653 3.35026C14.7653 9.64451 9.64451 14.7653 3.3503 14.7653H2.65267L1.56047 12.548L4.8086 10.1119L6.61698 11.4682H6.82276C8.05445 11.4668 9.23529 10.9769 10.1062 10.106C10.9772 9.23502 11.4671 8.05418 11.4684 6.82249V6.61671L10.1122 4.80836L12.548 1.56043L14.7653 2.65283V3.35026Z" fill="#808080"/>
</svg>
