<svg width="194" height="18" viewBox="0 0 194 18" fill="none" xmlns="http://www.w3.org/2000/svg">
<path d="M31.4 13.144C30.7067 13.144 30.0827 13.0213 29.528 12.776C28.984 12.52 28.552 12.1787 28.232 11.752C27.912 11.3147 27.7413 10.8293 27.72 10.296H29.608C29.64 10.6693 29.816 10.984 30.136 11.24C30.4667 11.4853 30.8773 11.608 31.368 11.608C31.88 11.608 32.2747 11.512 32.552 11.32C32.84 11.1173 32.984 10.8613 32.984 10.552C32.984 10.2213 32.824 9.976 32.504 9.816C32.1947 9.656 31.6987 9.48 31.016 9.288C30.3547 9.10667 29.816 8.93067 29.4 8.76C28.984 8.58933 28.6213 8.328 28.312 7.976C28.0133 7.624 27.864 7.16 27.864 6.584C27.864 6.11467 28.0027 5.688 28.28 5.304C28.5573 4.90933 28.952 4.6 29.464 4.376C29.9867 4.152 30.584 4.04 31.256 4.04C32.2587 4.04 33.064 4.296 33.672 4.808C34.2907 5.30933 34.6213 5.99733 34.664 6.872H32.84C32.808 6.47733 32.648 6.16267 32.36 5.928C32.072 5.69333 31.6827 5.576 31.192 5.576C30.712 5.576 30.344 5.66667 30.088 5.848C29.832 6.02933 29.704 6.26933 29.704 6.568C29.704 6.80267 29.7893 7 29.96 7.16C30.1307 7.32 30.3387 7.448 30.584 7.544C30.8293 7.62933 31.192 7.74133 31.672 7.88C32.312 8.05067 32.8347 8.22667 33.24 8.408C33.656 8.57867 34.0133 8.83467 34.312 9.176C34.6107 9.51733 34.7653 9.97067 34.776 10.536C34.776 11.0373 34.6373 11.4853 34.36 11.88C34.0827 12.2747 33.688 12.584 33.176 12.808C32.6747 13.032 32.0827 13.144 31.4 13.144ZM44.7309 4.184V13H42.9069V11.96C42.6189 12.3227 42.2402 12.6107 41.7709 12.824C41.3122 13.0267 40.8215 13.128 40.2989 13.128C39.6055 13.128 38.9815 12.984 38.4269 12.696C37.8829 12.408 37.4509 11.9813 37.1309 11.416C36.8215 10.8507 36.6669 10.168 36.6669 9.368V4.184H38.4749V9.096C38.4749 9.88533 38.6722 10.4933 39.0669 10.92C39.4615 11.336 40.0002 11.544 40.6829 11.544C41.3655 11.544 41.9042 11.336 42.2989 10.92C42.7042 10.4933 42.9069 9.88533 42.9069 9.096V4.184H44.7309ZM48.9615 5.48C49.2708 5.07467 49.6922 4.73333 50.2255 4.456C50.7588 4.17867 51.3615 4.04 52.0335 4.04C52.8015 4.04 53.5002 4.232 54.1295 4.616C54.7695 4.98933 55.2708 5.51733 55.6335 6.2C55.9962 6.88267 56.1775 7.66667 56.1775 8.552C56.1775 9.43733 55.9962 10.232 55.6335 10.936C55.2708 11.6293 54.7695 12.1733 54.1295 12.568C53.5002 12.952 52.8015 13.144 52.0335 13.144C51.3615 13.144 50.7642 13.0107 50.2415 12.744C49.7188 12.4667 49.2922 12.1253 48.9615 11.72V17.192H47.1375V4.184H48.9615V5.48ZM54.3215 8.552C54.3215 7.944 54.1935 7.42133 53.9375 6.984C53.6922 6.536 53.3615 6.2 52.9455 5.976C52.5402 5.74133 52.1028 5.624 51.6335 5.624C51.1748 5.624 50.7375 5.74133 50.3215 5.976C49.9162 6.21067 49.5855 6.552 49.3295 7C49.0842 7.448 48.9615 7.976 48.9615 8.584C48.9615 9.192 49.0842 9.72533 49.3295 10.184C49.5855 10.632 49.9162 10.9733 50.3215 11.208C50.7375 11.4427 51.1748 11.56 51.6335 11.56C52.1028 11.56 52.5402 11.4427 52.9455 11.208C53.3615 10.9627 53.6922 10.6107 53.9375 10.152C54.1935 9.69333 54.3215 9.16 54.3215 8.552ZM59.8053 5.48C60.1146 5.07467 60.5359 4.73333 61.0693 4.456C61.6026 4.17867 62.2053 4.04 62.8773 4.04C63.6453 4.04 64.3439 4.232 64.9733 4.616C65.6133 4.98933 66.1146 5.51733 66.4773 6.2C66.8399 6.88267 67.0213 7.66667 67.0213 8.552C67.0213 9.43733 66.8399 10.232 66.4773 10.936C66.1146 11.6293 65.6133 12.1733 64.9733 12.568C64.3439 12.952 63.6453 13.144 62.8773 13.144C62.2053 13.144 61.6079 13.0107 61.0853 12.744C60.5626 12.4667 60.1359 12.1253 59.8053 11.72V17.192H57.9813V4.184H59.8053V5.48ZM65.1653 8.552C65.1653 7.944 65.0373 7.42133 64.7812 6.984C64.5359 6.536 64.2053 6.2 63.7893 5.976C63.3839 5.74133 62.9466 5.624 62.4773 5.624C62.0186 5.624 61.5813 5.74133 61.1653 5.976C60.7599 6.21067 60.4293 6.552 60.1733 7C59.9279 7.448 59.8053 7.976 59.8053 8.584C59.8053 9.192 59.9279 9.72533 60.1733 10.184C60.4293 10.632 60.7599 10.9733 61.1653 11.208C61.5813 11.4427 62.0186 11.56 62.4773 11.56C62.9466 11.56 63.3839 11.4427 63.7893 11.208C64.2053 10.9627 64.5359 10.6107 64.7812 10.152C65.0373 9.69333 65.1653 9.16 65.1653 8.552ZM72.649 13.144C71.817 13.144 71.065 12.9573 70.393 12.584C69.721 12.2 69.193 11.6667 68.809 10.984C68.425 10.2907 68.233 9.49067 68.233 8.584C68.233 7.688 68.4303 6.89333 68.825 6.2C69.2197 5.50667 69.7583 4.97333 70.441 4.6C71.1237 4.22667 71.8863 4.04 72.729 4.04C73.5717 4.04 74.3343 4.22667 75.017 4.6C75.6997 4.97333 76.2383 5.50667 76.633 6.2C77.0277 6.89333 77.225 7.688 77.225 8.584C77.225 9.48 77.0223 10.2747 76.617 10.968C76.2117 11.6613 75.657 12.2 74.953 12.584C74.2597 12.9573 73.4917 13.144 72.649 13.144ZM72.649 11.56C73.1183 11.56 73.5557 11.448 73.961 11.224C74.377 11 74.713 10.664 74.969 10.216C75.225 9.768 75.353 9.224 75.353 8.584C75.353 7.944 75.2303 7.40533 74.985 6.968C74.7397 6.52 74.4143 6.184 74.009 5.96C73.6037 5.736 73.1663 5.624 72.697 5.624C72.2277 5.624 71.7903 5.736 71.385 5.96C70.9903 6.184 70.6757 6.52 70.441 6.968C70.2063 7.40533 70.089 7.944 70.089 8.584C70.089 9.53333 70.329 10.2693 70.809 10.792C71.2997 11.304 71.913 11.56 72.649 11.56ZM80.8521 5.464C81.1188 5.016 81.4708 4.66933 81.9081 4.424C82.3561 4.168 82.8841 4.04 83.4921 4.04V5.928H83.0281C82.3135 5.928 81.7695 6.10933 81.3961 6.472C81.0335 6.83467 80.8521 7.464 80.8521 8.36V13H79.0281V4.184H80.8521V5.464ZM87.2968 5.672V10.552C87.2968 10.8827 87.3714 11.1227 87.5208 11.272C87.6808 11.4107 87.9474 11.48 88.3208 11.48H89.4408V13H88.0008C87.1794 13 86.5501 12.808 86.1128 12.424C85.6754 12.04 85.4568 11.416 85.4568 10.552V5.672H84.4168V4.184H85.4568V1.992H87.2968V4.184H89.4408V5.672H87.2968ZM99.3299 2.664C100.546 2.664 101.597 2.888 102.482 3.336C103.367 3.784 104.039 4.41333 104.498 5.224C104.967 6.024 105.202 6.95733 105.202 8.024C105.202 8.87733 105.053 9.69333 104.754 10.472C104.466 11.2507 104.045 11.8853 103.49 12.376C102.946 12.8667 102.301 13.112 101.554 13.112C101.01 13.112 100.583 12.9947 100.274 12.76C99.9645 12.5147 99.7725 12.1733 99.6979 11.736C99.3672 12.1627 98.9512 12.4987 98.4499 12.744C97.9485 12.9893 97.4259 13.112 96.8819 13.112C96.0605 13.112 95.4152 12.8667 94.9459 12.376C94.4872 11.8747 94.2579 11.1973 94.2579 10.344C94.2579 9.53333 94.4232 8.776 94.7539 8.072C95.0952 7.368 95.5699 6.808 96.1779 6.392C96.7859 5.96533 97.4685 5.752 98.2259 5.752C99.1539 5.752 99.8045 6.06667 100.178 6.696L100.322 5.896H101.906L101.106 10.472C101.074 10.696 101.058 10.8933 101.058 11.064C101.058 11.3413 101.111 11.5493 101.218 11.688C101.335 11.8267 101.538 11.896 101.826 11.896C102.231 11.896 102.578 11.6987 102.866 11.304C103.154 10.8987 103.367 10.4027 103.506 9.816C103.655 9.22933 103.73 8.65867 103.73 8.104C103.73 6.74933 103.335 5.71467 102.546 5C101.757 4.28533 100.61 3.928 99.1059 3.928C97.8472 3.928 96.7165 4.22667 95.7139 4.824C94.7219 5.42133 93.9432 6.24267 93.3779 7.288C92.8125 8.33333 92.5299 9.496 92.5299 10.776C92.5299 12.1413 92.9352 13.1813 93.7459 13.896C94.5565 14.6107 95.7139 14.968 97.2179 14.968C98.2312 14.968 99.1165 14.7813 99.8739 14.408L100.114 15.624C99.1432 16.04 98.0552 16.248 96.8499 16.248C95.6872 16.248 94.6685 16.0293 93.7939 15.592C92.9192 15.1547 92.2419 14.5307 91.7619 13.72C91.2819 12.92 91.0419 11.9867 91.0419 10.92C91.0419 9.39467 91.3939 8.00267 92.0979 6.744C92.8125 5.48533 93.7992 4.49333 95.0579 3.768C96.3165 3.032 97.7405 2.664 99.3299 2.664ZM97.4419 11.704C97.8899 11.704 98.2952 11.576 98.6579 11.32C99.0312 11.0533 99.3245 10.7067 99.5379 10.28C99.7512 9.84267 99.8579 9.37867 99.8579 8.888C99.8579 8.376 99.7139 7.96 99.4259 7.64C99.1485 7.30933 98.7539 7.144 98.2419 7.144C97.7832 7.144 97.3779 7.288 97.0259 7.576C96.6845 7.85333 96.4179 8.216 96.2259 8.664C96.0445 9.112 95.9539 9.58133 95.9539 10.072C95.9539 10.5733 96.0765 10.9733 96.3219 11.272C96.5672 11.56 96.9405 11.704 97.4419 11.704ZM109.352 5.464C109.619 5.016 109.971 4.66933 110.408 4.424C110.856 4.168 111.384 4.04 111.992 4.04V5.928H111.528C110.813 5.928 110.269 6.10933 109.896 6.472C109.533 6.83467 109.352 7.464 109.352 8.36V13H107.528V4.184H109.352V5.464ZM121.749 8.376C121.749 8.70667 121.727 9.00533 121.685 9.272H114.949C115.002 9.976 115.263 10.5413 115.733 10.968C116.202 11.3947 116.778 11.608 117.461 11.608C118.442 11.608 119.135 11.1973 119.541 10.376H121.509C121.242 11.1867 120.757 11.8533 120.053 12.376C119.359 12.888 118.495 13.144 117.461 13.144C116.618 13.144 115.861 12.9573 115.189 12.584C114.527 12.2 114.005 11.6667 113.621 10.984C113.247 10.2907 113.061 9.49067 113.061 8.584C113.061 7.67733 113.242 6.88267 113.605 6.2C113.978 5.50667 114.495 4.97333 115.157 4.6C115.829 4.22667 116.597 4.04 117.461 4.04C118.293 4.04 119.034 4.22133 119.685 4.584C120.335 4.94667 120.842 5.45867 121.205 6.12C121.567 6.77067 121.749 7.52267 121.749 8.376ZM119.845 7.8C119.834 7.128 119.594 6.58933 119.125 6.184C118.655 5.77867 118.074 5.576 117.381 5.576C116.751 5.576 116.213 5.77867 115.765 6.184C115.317 6.57867 115.05 7.11733 114.965 7.8H119.845ZM125.16 11.512H129.16V13H123.048V11.512L127.064 5.672H123.048V4.184H129.16V5.672L125.16 11.512ZM132.003 3.016C131.672 3.016 131.395 2.904 131.171 2.68C130.947 2.456 130.835 2.17867 130.835 1.848C130.835 1.51733 130.947 1.24 131.171 1.016C131.395 0.791999 131.672 0.679999 132.003 0.679999C132.323 0.679999 132.595 0.791999 132.819 1.016C133.043 1.24 133.155 1.51733 133.155 1.848C133.155 2.17867 133.043 2.456 132.819 2.68C132.595 2.904 132.323 3.016 132.003 3.016ZM132.899 4.184V13H131.075V4.184H132.899ZM137.118 1.16V13H135.294V1.16H137.118ZM141.337 1.16V13H139.513V1.16H141.337ZM143.123 8.552C143.123 7.66667 143.305 6.88267 143.667 6.2C144.041 5.51733 144.542 4.98933 145.171 4.616C145.811 4.232 146.515 4.04 147.283 4.04C147.977 4.04 148.579 4.17867 149.091 4.456C149.614 4.72267 150.03 5.05867 150.339 5.464V4.184H152.179V13H150.339V11.688C150.03 12.104 149.609 12.4507 149.075 12.728C148.542 13.0053 147.934 13.144 147.251 13.144C146.494 13.144 145.801 12.952 145.171 12.568C144.542 12.1733 144.041 11.6293 143.667 10.936C143.305 10.232 143.123 9.43733 143.123 8.552ZM150.339 8.584C150.339 7.976 150.211 7.448 149.955 7C149.71 6.552 149.385 6.21067 148.979 5.976C148.574 5.74133 148.137 5.624 147.667 5.624C147.198 5.624 146.761 5.74133 146.355 5.976C145.95 6.2 145.619 6.536 145.363 6.984C145.118 7.42133 144.995 7.944 144.995 8.552C144.995 9.16 145.118 9.69333 145.363 10.152C145.619 10.6107 145.95 10.9627 146.355 11.208C146.771 11.4427 147.209 11.56 147.667 11.56C148.137 11.56 148.574 11.4427 148.979 11.208C149.385 10.9733 149.71 10.632 149.955 10.184C150.211 9.72533 150.339 9.192 150.339 8.584ZM155.311 13.112C154.98 13.112 154.703 13 154.479 12.776C154.255 12.552 154.143 12.2747 154.143 11.944C154.143 11.6133 154.255 11.336 154.479 11.112C154.703 10.888 154.98 10.776 155.311 10.776C155.631 10.776 155.903 10.888 156.127 11.112C156.351 11.336 156.463 11.6133 156.463 11.944C156.463 12.2747 156.351 12.552 156.127 12.776C155.903 13 155.631 13.112 155.311 13.112ZM157.826 8.584C157.826 7.67733 158.008 6.88267 158.37 6.2C158.744 5.50667 159.256 4.97333 159.906 4.6C160.557 4.22667 161.304 4.04 162.146 4.04C163.213 4.04 164.093 4.296 164.786 4.808C165.49 5.30933 165.965 6.02933 166.21 6.968H164.242C164.082 6.53067 163.826 6.18933 163.474 5.944C163.122 5.69867 162.68 5.576 162.146 5.576C161.4 5.576 160.802 5.84267 160.354 6.376C159.917 6.89867 159.698 7.63467 159.698 8.584C159.698 9.53333 159.917 10.2747 160.354 10.808C160.802 11.3413 161.4 11.608 162.146 11.608C163.202 11.608 163.901 11.144 164.242 10.216H166.21C165.954 11.112 165.474 11.8267 164.77 12.36C164.066 12.8827 163.192 13.144 162.146 13.144C161.304 13.144 160.557 12.9573 159.906 12.584C159.256 12.2 158.744 11.6667 158.37 10.984C158.008 10.2907 157.826 9.49067 157.826 8.584ZM171.852 13.144C171.02 13.144 170.268 12.9573 169.596 12.584C168.924 12.2 168.396 11.6667 168.012 10.984C167.628 10.2907 167.436 9.49067 167.436 8.584C167.436 7.688 167.633 6.89333 168.028 6.2C168.423 5.50667 168.961 4.97333 169.644 4.6C170.327 4.22667 171.089 4.04 171.932 4.04C172.775 4.04 173.537 4.22667 174.22 4.6C174.903 4.97333 175.441 5.50667 175.836 6.2C176.231 6.89333 176.428 7.688 176.428 8.584C176.428 9.48 176.225 10.2747 175.82 10.968C175.415 11.6613 174.86 12.2 174.156 12.584C173.463 12.9573 172.695 13.144 171.852 13.144ZM171.852 11.56C172.321 11.56 172.759 11.448 173.164 11.224C173.58 11 173.916 10.664 174.172 10.216C174.428 9.768 174.556 9.224 174.556 8.584C174.556 7.944 174.433 7.40533 174.188 6.968C173.943 6.52 173.617 6.184 173.212 5.96C172.807 5.736 172.369 5.624 171.9 5.624C171.431 5.624 170.993 5.736 170.588 5.96C170.193 6.184 169.879 6.52 169.644 6.968C169.409 7.40533 169.292 7.944 169.292 8.584C169.292 9.53333 169.532 10.2693 170.012 10.792C170.503 11.304 171.116 11.56 171.852 11.56ZM188.903 4.04C189.597 4.04 190.215 4.184 190.759 4.472C191.314 4.76 191.746 5.18667 192.055 5.752C192.375 6.31733 192.535 7 192.535 7.8V13H190.727V8.072C190.727 7.28267 190.53 6.68 190.135 6.264C189.741 5.83733 189.202 5.624 188.519 5.624C187.837 5.624 187.293 5.83733 186.887 6.264C186.493 6.68 186.295 7.28267 186.295 8.072V13H184.487V8.072C184.487 7.28267 184.29 6.68 183.895 6.264C183.501 5.83733 182.962 5.624 182.279 5.624C181.597 5.624 181.053 5.83733 180.647 6.264C180.253 6.68 180.055 7.28267 180.055 8.072V13H178.231V4.184H180.055V5.192C180.354 4.82933 180.733 4.54667 181.191 4.344C181.65 4.14133 182.141 4.04 182.663 4.04C183.367 4.04 183.997 4.18933 184.551 4.488C185.106 4.78667 185.533 5.21867 185.831 5.784C186.098 5.25067 186.514 4.82933 187.079 4.52C187.645 4.2 188.253 4.04 188.903 4.04Z" fill="#808080"/>
<path d="M5 4.2002L9 7.00019L13 4.2002" stroke="#808080" stroke-width="1.4" stroke-linecap="round" stroke-linejoin="round"/>
<path d="M1 10.6V2.6C1 1.71634 1.71634 1 2.6 1H15.4C16.2837 1 17 1.71634 17 2.6V10.6C17 11.4837 16.2837 12.2 15.4 12.2H2.6C1.71634 12.2 1 11.4837 1 10.6Z" stroke="#808080" stroke-width="1.4"/>
</svg>
