<svg width="87" height="20" viewBox="0 0 87 20" fill="none" xmlns="http://www.w3.org/2000/svg">
<path d="M9.53582 19.0716C4.27949 19.0716 0 14.7921 0 9.53582C0 4.27949 4.27949 0 9.53582 0C14.7921 0 19.0716 4.27949 19.0716 9.53582C19.0716 14.7921 14.7921 19.0716 9.53582 19.0716ZM9.53582 1.39549C5.04235 1.39549 1.39549 5.05166 1.39549 9.53582C1.39549 14.02 5.04235 17.6761 9.53582 17.6761C14.0293 17.6761 17.6761 14.02 17.6761 9.53582C17.6761 5.05166 14.0293 1.39549 9.53582 1.39549Z" fill="white"/>
<path d="M19.3046 20.0019C19.1278 20.0019 18.9511 19.9367 18.8115 19.7972L16.9509 17.9365C16.6811 17.6667 16.6811 17.2202 16.9509 16.9504C17.2207 16.6806 17.6672 16.6806 17.937 16.9504L19.7977 18.811C20.0675 19.0808 20.0675 19.5274 19.7977 19.7972C19.6581 19.9367 19.4814 20.0019 19.3046 20.0019Z" fill="white"/>
<path d="M38.954 12.3489C38.954 8.28491 33.066 9.85292 33.066 7.34091C33.066 6.26892 33.882 5.75692 34.938 5.78891C36.09 5.82092 36.746 6.50891 36.81 7.26091H38.826C38.666 5.35692 37.162 4.23691 35.034 4.23691C32.762 4.23691 31.21 5.45292 31.21 7.40491C31.21 11.5009 37.114 9.75692 37.114 12.4449C37.114 13.3889 36.394 14.0769 35.114 14.0769C33.85 14.0769 33.21 13.3409 33.13 12.4289H31.178C31.178 14.3969 32.89 15.6129 35.114 15.6129C37.594 15.6129 38.954 14.0129 38.954 12.3489ZM44.8183 8.07692C46.1783 8.07692 47.2503 8.94092 47.2823 10.3009H42.4023C42.5943 8.90892 43.5863 8.07692 44.8183 8.07692ZM48.9462 12.8769H46.9783C46.6423 13.5649 46.0183 14.1089 44.8983 14.1089C43.5543 14.1089 42.5143 13.2289 42.3863 11.7729H49.1223C49.1703 11.4689 49.1863 11.1809 49.1863 10.8769C49.1863 8.28491 47.4103 6.54092 44.8983 6.54092C42.2903 6.54092 40.4983 8.31692 40.4983 11.0849C40.4983 13.8529 42.3703 15.6449 44.8983 15.6449C47.0583 15.6449 48.4503 14.4129 48.9462 12.8769ZM50.3733 11.0529C50.3733 13.7729 52.2133 15.6449 54.5013 15.6449C55.9733 15.6449 57.0293 14.9409 57.5893 14.1889V15.5009H59.4293V6.68492H57.5893V7.96492C57.0453 7.24492 56.0213 6.54092 54.5333 6.54092C52.2133 6.54092 50.3733 8.33292 50.3733 11.0529ZM57.5893 11.0849C57.5893 12.9889 56.2933 14.0609 54.9173 14.0609C53.5573 14.0609 52.2453 12.9569 52.2453 11.0529C52.2453 9.14892 53.5573 8.12492 54.9173 8.12492C56.2933 8.12492 57.5893 9.19692 57.5893 11.0849ZM63.649 10.8609C63.649 8.98892 64.481 8.42892 65.825 8.42892H66.289V6.54092C65.041 6.54092 64.161 7.08492 63.649 7.96492V6.68492H61.825V15.5009H63.649V10.8609ZM67.3576 11.0849C67.3576 13.8529 69.1496 15.6449 71.6776 15.6449C73.8376 15.6449 75.2456 14.4449 75.7416 12.7169H73.7736C73.4376 13.6289 72.7656 14.1089 71.6776 14.1089C70.2056 14.1089 69.2296 13.0209 69.2296 11.0849C69.2296 9.16492 70.2056 8.07692 71.6776 8.07692C72.7656 8.07692 73.4696 8.62092 73.7736 9.46892H75.7416C75.2456 7.61292 73.8376 6.54092 71.6776 6.54092C69.1496 6.54092 67.3576 8.33292 67.3576 11.0849ZM77.5594 15.5009H79.3834V10.5729C79.3834 8.95692 80.2634 8.12492 81.6074 8.12492C82.9354 8.12492 83.8154 8.95692 83.8154 10.5729V15.5009H85.6234V10.3009C85.6234 7.83692 84.0874 6.54092 82.1194 6.54092C80.9834 6.54092 79.9914 6.97291 79.3834 7.70892V3.66092H77.5594V15.5009Z" fill="white"/>
</svg>
