<svg width="179" height="34" viewBox="0 0 179 34" fill="none" xmlns="http://www.w3.org/2000/svg">
<rect width="178.276" height="34" rx="17" fill="#F1FFF1"/>
<path d="M29.5383 15.94H29.5378H26.7378C26.4413 15.94 26.157 15.8222 25.9474 15.6126C25.7378 15.403 25.62 15.1187 25.62 14.8222C25.62 14.5258 25.7378 14.2415 25.9474 14.0318C26.157 13.8222 26.4413 13.7045 26.7378 13.7045H31.2178H31.7178V13.2045V12.0845V11.5845H31.2178H29.3378V10V9.5H28.8378H27.7178H27.2178V10V11.5845H26.7378C25.8791 11.5845 25.0555 11.9256 24.4483 12.5328C23.8411 13.14 23.5 13.9635 23.5 14.8222C23.5 15.6809 23.8411 16.5045 24.4483 17.1117C25.0555 17.7189 25.8791 18.06 26.7378 18.06H29.5372C29.8337 18.0603 30.118 18.1783 30.3276 18.3879C30.5372 18.5975 30.6551 18.8816 30.6555 19.178C30.6555 19.1781 30.6555 19.1782 30.6555 19.1783V19.3017C30.6555 19.3018 30.6555 19.3019 30.6555 19.302C30.6551 19.5984 30.5372 19.8825 30.3276 20.0921C30.118 20.3017 29.8337 20.4197 29.5372 20.42H24.7985H24.2985V20.92V22.04V22.54H24.7985H27.2178V24V24.5H27.7178H28.8378H29.3378V24V22.54H29.5378H29.5383C30.3966 22.539 31.2194 22.1977 31.8263 21.5908C32.4332 20.9839 32.7746 20.1611 32.7755 19.3028V19.3022V19.1778V19.1772C32.7746 18.3189 32.4332 17.4961 31.8263 16.8892C31.2194 16.2823 30.3966 15.941 29.5383 15.94Z" fill="#00CE3A" stroke="#00CE3A"/>
<path d="M46.1857 12.2299H43.2996V21.5H46.1857C49.2314 21.5 51.1067 19.7577 51.1067 16.8849C51.1067 14.0121 49.2314 12.2299 46.1857 12.2299ZM44.5099 20.5025V13.2141H46.1857C48.6063 13.2141 49.8698 14.6239 49.8698 16.8849C49.8698 19.1459 48.6063 20.5025 46.1857 20.5025H44.5099ZM52.7031 21.5H53.9134V14.2116H52.7031V21.5ZM53.3282 13.0279C53.7671 13.0279 54.1262 12.6688 54.1262 12.2033C54.1262 11.7378 53.7671 11.3787 53.3282 11.3787C52.8627 11.3787 52.5036 11.7378 52.5036 12.2033C52.5036 12.6688 52.8627 13.0279 53.3282 13.0279ZM61.2164 19.5183C61.1632 16.9115 56.9338 17.8558 56.9338 16.1268C56.9338 15.5416 57.4658 15.116 58.3569 15.116C59.3278 15.116 59.8864 15.648 59.9396 16.3795H61.1499C61.0701 14.9564 60.0061 14.0919 58.3968 14.0919C56.7742 14.0919 55.7235 15.0096 55.7235 16.1268C55.7235 18.84 60.0327 17.8957 60.0327 19.5183C60.0327 20.1168 59.5007 20.5956 58.5431 20.5956C57.519 20.5956 56.8939 20.0636 56.8274 19.3587H55.5772C55.657 20.6887 56.854 21.6197 58.5564 21.6197C60.1657 21.6197 61.2164 20.7153 61.2164 19.5183ZM62.4727 17.8425C62.4727 20.1567 63.949 21.6197 66.0238 21.6197C67.8326 21.6197 69.0163 20.6089 69.3887 19.1592H68.0853C67.8193 20.0769 67.1011 20.5956 66.0238 20.5956C64.6938 20.5956 63.7096 19.6513 63.7096 17.8425C63.7096 16.0603 64.6938 15.116 66.0238 15.116C67.1011 15.116 67.8326 15.6746 68.0853 16.5524H69.3887C69.0163 15.0229 67.8326 14.0919 66.0238 14.0919C63.949 14.0919 62.4727 15.5549 62.4727 17.8425ZM77.9196 17.8425C77.9196 15.5416 76.3103 14.0919 74.2355 14.0919C72.174 14.0919 70.5514 15.5416 70.5514 17.8425C70.5514 20.1567 72.1208 21.6197 74.1823 21.6197C76.2571 21.6197 77.9196 20.1567 77.9196 17.8425ZM71.7883 17.8425C71.7883 16.0071 72.9454 15.1426 74.2222 15.1426C75.4724 15.1426 76.6827 16.0071 76.6827 17.8425C76.6827 19.6912 75.4458 20.5557 74.1823 20.5557C72.9188 20.5557 71.7883 19.6912 71.7883 17.8425ZM85.9747 14.2116H84.7644V18.2149C84.7644 19.7843 83.9265 20.5557 82.6763 20.5557C81.4527 20.5557 80.6414 19.7976 80.6414 18.3213V14.2116H79.4444V18.4809C79.4444 20.569 80.7611 21.6064 82.4369 21.6064C83.4078 21.6064 84.2989 21.1808 84.7644 20.4227V21.5H85.9747V14.2116ZM93.3516 21.5H94.5486V17.2041C94.5486 15.116 93.2585 14.0786 91.5694 14.0786C90.5852 14.0786 89.7074 14.4909 89.2286 15.249V14.2116H88.0183V21.5H89.2286V17.4701C89.2286 15.9007 90.0798 15.1293 91.3167 15.1293C92.5403 15.1293 93.3516 15.8874 93.3516 17.377V21.5ZM96.7916 19.505C96.7916 20.968 97.5231 21.5 98.8132 21.5H99.9038V20.4759H99.0127C98.2679 20.4759 98.0019 20.2232 98.0019 19.505V15.2091H99.9038V14.2116H98.0019V12.3762H96.7916V14.2116H95.8473V15.2091H96.7916V19.505ZM104.469 15.116C105.719 15.116 106.783 15.9007 106.77 17.3238H102.168C102.301 15.9007 103.285 15.116 104.469 15.116ZM107.874 19.2523H106.571C106.305 20.037 105.613 20.5956 104.522 20.5956C103.285 20.5956 102.248 19.7843 102.155 18.308H107.98C108.007 18.0553 108.02 17.8425 108.02 17.5765C108.02 15.5815 106.637 14.0919 104.522 14.0919C102.394 14.0919 100.918 15.5416 100.918 17.8425C100.918 20.1567 102.448 21.6197 104.522 21.6197C106.331 21.6197 107.502 20.5823 107.874 19.2523ZM109.166 17.8292C109.166 20.0902 110.668 21.6197 112.624 21.6197C113.954 21.6197 114.898 20.9414 115.337 20.1301V21.5H116.56V11.658H115.337V15.515C114.831 14.6771 113.781 14.0919 112.637 14.0919C110.668 14.0919 109.166 15.5549 109.166 17.8292ZM115.337 17.8425C115.337 19.5582 114.193 20.5557 112.863 20.5557C111.533 20.5557 110.402 19.5449 110.402 17.8292C110.402 16.1135 111.533 15.1426 112.863 15.1426C114.193 15.1426 115.337 16.1534 115.337 17.8425ZM123.362 16.6322V13.2274H125.144C126.527 13.2274 127.112 13.8658 127.112 14.9431C127.112 15.9805 126.527 16.6322 125.144 16.6322H123.362ZM128.349 14.9431C128.349 13.4269 127.325 12.2299 125.144 12.2299H122.151V21.5H123.362V17.6297H125.144C127.445 17.6297 128.349 16.3529 128.349 14.9431ZM131.064 17.5366C131.064 15.8475 131.942 15.3288 133.099 15.3288H133.418V14.0786C132.261 14.0786 131.476 14.584 131.064 15.3953V14.2116H129.854V21.5H131.064V17.5366ZM134.815 21.5H136.025V14.2116H134.815V21.5ZM135.44 13.0279C135.879 13.0279 136.238 12.6688 136.238 12.2033C136.238 11.7378 135.879 11.3787 135.44 11.3787C134.975 11.3787 134.616 11.7378 134.616 12.2033C134.616 12.6688 134.975 13.0279 135.44 13.0279ZM137.636 17.8425C137.636 20.1567 139.112 21.6197 141.187 21.6197C142.996 21.6197 144.179 20.6089 144.552 19.1592H143.248C142.982 20.0769 142.264 20.5956 141.187 20.5956C139.857 20.5956 138.873 19.6513 138.873 17.8425C138.873 16.0603 139.857 15.116 141.187 15.116C142.264 15.116 142.996 15.6746 143.248 16.5524H144.552C144.179 15.0229 142.996 14.0919 141.187 14.0919C139.112 14.0919 137.636 15.5549 137.636 17.8425ZM149.266 15.116C150.516 15.116 151.58 15.9007 151.567 17.3238H146.965C147.098 15.9007 148.082 15.116 149.266 15.116ZM152.671 19.2523H151.367C151.101 20.037 150.41 20.5956 149.319 20.5956C148.082 20.5956 147.045 19.7843 146.952 18.308H152.777C152.804 18.0553 152.817 17.8425 152.817 17.5765C152.817 15.5815 151.434 14.0919 149.319 14.0919C147.191 14.0919 145.715 15.5416 145.715 17.8425C145.715 20.1567 147.244 21.6197 149.319 21.6197C151.128 21.6197 152.298 20.5823 152.671 19.2523Z" fill="#00CE3A"/>
</svg>
