<svg width="146" height="35" viewBox="0 0 146 35" fill="none" xmlns="http://www.w3.org/2000/svg">
<rect width="146" height="34.7259" rx="17.363" fill="#D7EEFF"/>
<path d="M37.6771 15.99L31.4712 10.2806C31.2694 10.095 31.0038 9.99452 30.7297 10.0002C30.4556 10.0059 30.1943 10.1174 30.0005 10.3112L24.2929 16.0188L24 16.3117V24.7259H29.5V19.4759H32.5V24.7259H38V16.2871L37.6771 15.99Z" fill="#119BFF"/>
<path d="M55.1022 12.5796V19.9478L50.2344 12.5796H49.0241V21.863H50.2344V14.4815L55.1022 21.863H56.3125V12.5796H55.1022ZM61.4746 15.479C62.7248 15.479 63.7888 16.2637 63.7755 17.6868H59.1737C59.3067 16.2637 60.2909 15.479 61.4746 15.479ZM64.8794 19.6153H63.576C63.31 20.4 62.6184 20.9586 61.5278 20.9586C60.2909 20.9586 59.2535 20.1473 59.1604 18.671H64.9858C65.0124 18.4183 65.0257 18.2055 65.0257 17.9395C65.0257 15.9445 63.6425 14.4549 61.5278 14.4549C59.3998 14.4549 57.9235 15.9046 57.9235 18.2055C57.9235 20.5197 59.453 21.9827 61.5278 21.9827C63.3366 21.9827 64.507 20.9453 64.8794 19.6153ZM68.0463 21.863H69.2965L71.0521 16.0775L72.8077 21.863H74.0579L76.3322 14.5746H75.1352L73.486 20.7059L71.7171 14.5746H70.4802L68.6714 20.6926L66.9956 14.5746H65.7587L68.0463 21.863ZM81.0792 12.5929V21.863H85.5347V20.8788H82.2895V12.5929H81.0792ZM86.82 21.863H88.0303V14.5746H86.82V21.863ZM87.4451 13.3909C87.884 13.3909 88.2431 13.0318 88.2431 12.5663C88.2431 12.1008 87.884 11.7417 87.4451 11.7417C86.9796 11.7417 86.6205 12.1008 86.6205 12.5663C86.6205 13.0318 86.9796 13.3909 87.4451 13.3909ZM95.3332 19.8813C95.28 17.2745 91.0506 18.2188 91.0506 16.4898C91.0506 15.9046 91.5826 15.479 92.4737 15.479C93.4446 15.479 94.0032 16.011 94.0564 16.7425H95.2667C95.1869 15.3194 94.1229 14.4549 92.5136 14.4549C90.891 14.4549 89.8403 15.3726 89.8403 16.4898C89.8403 19.203 94.1495 18.2587 94.1495 19.8813C94.1495 20.4798 93.6175 20.9586 92.6599 20.9586C91.6358 20.9586 91.0107 20.4266 90.9442 19.7217H89.694C89.7738 21.0517 90.9708 21.9827 92.6732 21.9827C94.2825 21.9827 95.3332 21.0783 95.3332 19.8813ZM97.3078 19.868C97.3078 21.331 98.0393 21.863 99.3294 21.863H100.42V20.8389H99.5289C98.7841 20.8389 98.5181 20.5862 98.5181 19.868V15.5721H100.42V14.5746H98.5181V12.7392H97.3078V14.5746H96.3635V15.5721H97.3078V19.868ZM101.886 21.863H103.097V14.5746H101.886V21.863ZM102.512 13.3909C102.95 13.3909 103.31 13.0318 103.31 12.5663C103.31 12.1008 102.95 11.7417 102.512 11.7417C102.046 11.7417 101.687 12.1008 101.687 12.5663C101.687 13.0318 102.046 13.3909 102.512 13.3909ZM110.493 21.863H111.69V17.5671C111.69 15.479 110.4 14.4416 108.711 14.4416C107.726 14.4416 106.849 14.8539 106.37 15.612V14.5746H105.159V21.863H106.37V17.8331C106.37 16.2637 107.221 15.4923 108.458 15.4923C109.681 15.4923 110.493 16.2504 110.493 17.74V21.863ZM113.215 18.1922C113.215 20.4532 114.717 21.9827 116.673 21.9827C118.003 21.9827 118.947 21.2778 119.386 20.4931V22.0226C119.386 23.5787 118.415 24.4033 117.125 24.4033C115.928 24.4033 115.063 23.8048 114.797 22.927H113.6C113.84 24.4831 115.21 25.454 117.125 25.454C119.266 25.454 120.609 24.0309 120.609 22.0226V14.5746H119.386V15.9046C118.96 15.1199 118.003 14.4549 116.673 14.4549C114.717 14.4549 113.215 15.9179 113.215 18.1922ZM119.386 18.2055C119.386 19.9212 118.242 20.9187 116.912 20.9187C115.582 20.9187 114.451 19.9079 114.451 18.1922C114.451 16.4765 115.582 15.5056 116.912 15.5056C118.242 15.5056 119.386 16.5164 119.386 18.2055Z" fill="#119BFF"/>
</svg>
