<svg width="123" height="36" viewBox="0 0 123 36" fill="none" xmlns="http://www.w3.org/2000/svg">
<rect width="123" height="35.754" rx="17.877" fill="#FFE1E1"/>
<path d="M32.6853 17.877C32.867 17.5785 33.0549 17.27 33.2404 16.9518C33.8614 15.8873 33.9753 14.8147 33.5792 13.7637C32.7799 11.6432 30.108 10.3512 29.4895 10.1451L29.0545 10L28.3757 11.358L28.7033 11.6256C28.7069 11.6286 29.0708 11.9465 29.0951 12.4285C29.1158 12.84 28.8902 13.2846 28.4248 13.7502C28.1016 14.0733 27.7468 14.3858 27.3713 14.7166C25.7911 16.1083 24 17.686 24 20.6707C24 20.7117 24.0004 20.7525 24.0012 20.793C24.0126 21.4516 24.1541 22.1015 24.4174 22.7053C24.6808 23.3091 25.0608 23.855 25.5357 24.3115C26.4893 25.2391 27.768 25.7568 29.0983 25.7539H32.1414L31.7658 24.9916C30.2395 21.894 31.3188 20.1213 32.6853 17.877Z" fill="#FF1111"/>
<path d="M37.8761 20.6368C37.8673 20.6018 37.8581 20.5667 37.8485 20.5315C37.467 19.1328 35.3553 17.3344 35.1158 17.134L34.6348 16.7314L34.3194 17.2736C33.6007 18.5093 32.9839 19.6364 32.715 20.9151C32.4084 22.3733 32.6148 23.8554 33.3461 25.446L33.4875 25.7538H33.8469C34.48 25.7557 35.105 25.6121 35.6739 25.3343C36.2427 25.0565 36.7402 24.6518 37.1279 24.1514C37.5133 23.6619 37.7812 23.0904 37.9109 22.4811C38.0406 21.8718 38.0287 21.2408 37.8761 20.6368Z" fill="#FF1111"/>
<path d="M50.2344 17.5092V14.1044H52.0166C53.3998 14.1044 53.985 14.7428 53.985 15.8201C53.985 16.8575 53.3998 17.5092 52.0166 17.5092H50.2344ZM55.2219 15.8201C55.2219 14.3039 54.1978 13.1069 52.0166 13.1069H49.0241V22.377H50.2344V18.5067H52.0166C54.3175 18.5067 55.2219 17.2299 55.2219 15.8201ZM63.6422 18.7195C63.6422 16.4186 62.0329 14.9689 59.9581 14.9689C57.8966 14.9689 56.274 16.4186 56.274 18.7195C56.274 21.0337 57.8434 22.4967 59.9049 22.4967C61.9797 22.4967 63.6422 21.0337 63.6422 18.7195ZM57.5109 18.7195C57.5109 16.8841 58.668 16.0196 59.9448 16.0196C61.195 16.0196 62.4053 16.8841 62.4053 18.7195C62.4053 20.5682 61.1684 21.4327 59.9049 21.4327C58.6414 21.4327 57.5109 20.5682 57.5109 18.7195ZM66.4438 16.4319V15.0886H65.2335V25.835H66.4438V21.0337C66.896 21.7785 67.8403 22.4967 69.1703 22.4967C71.1254 22.4967 72.6283 20.9672 72.6283 18.7062C72.6283 16.4319 71.1254 14.9689 69.1703 14.9689C67.8403 14.9689 66.8827 15.6605 66.4438 16.4319ZM71.3914 18.7062C71.3914 20.4219 70.2609 21.4327 68.9176 21.4327C67.6009 21.4327 66.4438 20.4352 66.4438 18.7195C66.4438 17.0304 67.6009 16.0196 68.9176 16.0196C70.2609 16.0196 71.3914 16.9905 71.3914 18.7062ZM80.6852 15.0886H79.4749V19.0919C79.4749 20.6613 78.637 21.4327 77.3868 21.4327C76.1632 21.4327 75.3519 20.6746 75.3519 19.1983V15.0886H74.1549V19.3579C74.1549 21.446 75.4716 22.4834 77.1474 22.4834C78.1183 22.4834 79.0094 22.0578 79.4749 21.2997V22.377H80.6852V15.0886ZM82.7287 22.377H83.939V12.535H82.7287V22.377ZM85.5495 18.7062C85.5495 20.9672 87.0524 22.4967 88.9942 22.4967C90.3375 22.4967 91.2818 21.8051 91.7207 21.0204V22.377H92.9443V15.0886H91.7207V16.4186C91.2951 15.6605 90.3641 14.9689 89.0075 14.9689C87.0524 14.9689 85.5495 16.4319 85.5495 18.7062ZM91.7207 18.7195C91.7207 20.4352 90.5769 21.4327 89.2469 21.4327C87.9169 21.4327 86.7864 20.4219 86.7864 18.7062C86.7864 16.9905 87.9169 16.0196 89.2469 16.0196C90.5769 16.0196 91.7207 17.0304 91.7207 18.7195ZM96.1999 18.4136C96.1999 16.7245 97.0777 16.2058 98.2348 16.2058H98.554V14.9556C97.3969 14.9556 96.6122 15.461 96.1999 16.2723V15.0886H94.9896V22.377H96.1999V18.4136Z" fill="#FF1111"/>
</svg>
